<svg height="12" id="add-member" viewbox="-1 -1 12 12" width="12" x="432" xmlns="http://www.w3.org/2000/svg" y="406">
 <path d="M3.636 4.545a2.273 2.273 0 110-4.545 2.273 2.273 0 010 4.545zM6.24 5.792v.448H5.124a1.033 1.033 0 000 2.066H6.24V9.42c0 .072.007.141.02.208-.226.13-.48.217-.754.25l-.125.015a14.766 14.766 0 01-3.588-.006l-.027-.004A2.014 2.014 0 010 7.885c0-1.077.649-2.048 1.644-2.461l.15-.062a4.744 4.744 0 013.593-.017l.235.094c.225.091.432.21.618.353zm.454.902v-1.57a.579.579 0 011.157 0v1.57h1.57a.579.579 0 110 1.157h-1.57v1.57a.579.579 0 11-1.157 0v-1.57h-1.57a.579.579 0 010-1.157h1.57z" fill="#343434" fill-rule="evenodd">
 </path>
</svg>
