<svg height="20" id="analytics-members-act" viewbox="-1 -1 20 20" width="20" x="502" xmlns="http://www.w3.org/2000/svg" y="378">
 <path d="M6.848 8.41c-1.673 0-3.03-1.324-3.03-2.955 0-1.632 1.357-2.955 3.03-2.955 1.674 0 3.03 1.323 3.03 2.955 0 1.631-1.356 2.954-3.03 2.954zm2.493 6.932l-.167.02a20.19 20.19 0 01-4.783-.008l-.036-.004C3.01 15.187 2 14.073 2 12.75c0-1.4.865-2.663 2.192-3.2l.2-.08a6.476 6.476 0 014.79-.023l.314.123c1.33.524 2.201 1.782 2.201 3.18 0 1.32-1.011 2.433-2.356 2.591zm3.326-6.084c-1.15 0-2.084-.91-2.084-2.031 0-1.122.933-2.032 2.084-2.032 1.15 0 2.083.91 2.083 2.032 0 1.121-.933 2.03-2.083 2.03zm-.738 5.1a3.186 3.186 0 00.435-1.607c0-.994-.37-1.93-1.007-2.654a4.454 4.454 0 012.915.119l.215.085A2.358 2.358 0 0116 12.487c0 .908-.695 1.672-1.62 1.781l-.114.014a13.88 13.88 0 01-2.337.076z" fill="#343434" fill-rule="evenodd">
 </path>
</svg>
