<svg height="20" id="analytics-overview-act" viewbox="-1 -1 20 20" width="20" x="502" xmlns="http://www.w3.org/2000/svg" y="418">
 <path d="M2.778 2h4.666c.43 0 .778.348.778.778v4.666c0 .43-.348.778-.778.778H2.778A.778.778 0 012 7.444V2.778c0-.43.348-.778.778-.778zm0 7.778h4.666c.43 0 .778.348.778.778v4.666c0 .43-.348.778-.778.778H2.778A.778.778 0 012 15.222v-4.666c0-.43.348-.778.778-.778zM10.556 2h4.666c.43 0 .778.348.778.778v4.666c0 .43-.348.778-.778.778h-4.666a.778.778 0 01-.778-.778V2.778c0-.43.348-.778.778-.778zm0 7.778h4.666c.43 0 .778.348.778.778v4.666c0 .43-.348.778-.778.778h-4.666a.778.778 0 01-.778-.778v-4.666c0-.43.348-.778.778-.778z" fill="#343434" fill-rule="evenodd">
 </path>
</svg>
