<svg height="14" id="analytics-download" viewbox="-1 -1 14 14" width="14" x="178" xmlns="http://www.w3.org/2000/svg" y="158">
 <path d="M2.667 9.571h6.666c.369 0 .667.32.667.715 0 .394-.298.714-.667.714H2.667C2.298 11 2 10.68 2 10.286c0-.395.298-.715.667-.715zm5.333-5h.864c.369 0 .667.32.667.715a.737.737 0 01-.233.542l-2.864 2.63a.633.633 0 01-.868 0l-2.864-2.63a.75.75 0 01-.073-1.007.65.65 0 01.507-.25H4V1.714C4 1.32 4.298 1 4.667 1h2.666c.369 0 .667.32.667.714v2.857z" fill="#343434" fill-rule="evenodd">
 </path>
</svg>
