<svg height="32" id="appbar-noti-hor" viewbox="-1 -1 32 32" width="32" x="110" xmlns="http://www.w3.org/2000/svg" y="238">
 <g fill="none" fill-rule="evenodd">
  <circle cx="15" cy="15" fill="#F1F1F1" r="15">
  </circle>
  <path d="M15.778 8.596c1.951.338 3.503 1.39 3.757 3.664l.492 4.427c.106.95 1.507 1.875 1.889 2.732.196.442.037.98-.356 1.2a.726.726 0 01-.357.095H8.796c-.44 0-.796-.4-.796-.895a.99.99 0 01.084-.4c.382-.857 1.783-1.781 1.889-2.732l.492-4.427c.253-2.275 1.806-3.45 3.757-3.69v-.792a.778.778 0 111.556 0v.818zm-2.334 12.88h3.112c0 .842-.683 1.524-1.524 1.524h-.064a1.524 1.524 0 01-1.524-1.524z" fill="#8B8E95">
  </path>
 </g>
</svg>
