<svg height="32" id="appbar-bookmark-nor" viewbox="-1 -1 32 32" width="32" x="374" xmlns="http://www.w3.org/2000/svg" y="289">
 <path d="M14.76 19.98l-4.182 2.583a.457.457 0 01-.684-.497l1.164-4.775a.457.457 0 00-.148-.457l-3.749-3.18a.457.457 0 01.261-.803l4.902-.369a.457.457 0 00.388-.282l1.865-4.547a.457.457 0 01.846 0l1.865 4.547c.066.16.216.269.388.282l4.902.369a.457.457 0 01.26.804l-3.748 3.18a.457.457 0 00-.148.456l1.164 4.775a.457.457 0 01-.684.497L15.24 19.98a.457.457 0 00-.48 0z" fill="#8B8E95" fill-rule="evenodd">
 </path>
</svg>
