<svg height="32" id="appbar-members-act" viewbox="-1 -1 32 32" width="32" x="255" xmlns="http://www.w3.org/2000/svg" y="175">
 <path d="M12.541 14.318c-1.913 0-3.463-1.526-3.463-3.409 0-1.883 1.55-3.409 3.463-3.409s3.463 1.526 3.463 3.41c0 1.882-1.55 3.408-3.463 3.408zm2.849 8l-.19.022a22.855 22.855 0 01-5.467-.008l-.042-.006C8.154 22.14 7 20.853 7 19.328c0-1.616.989-3.073 2.505-3.692l.228-.093a7.336 7.336 0 015.476-.026l.358.142a3.957 3.957 0 012.515 3.67c0 1.523-1.156 2.806-2.692 2.989zm3.8-7.02c-1.314 0-2.38-1.05-2.38-2.344 0-1.295 1.066-2.344 2.38-2.344 1.315 0 2.381 1.05 2.381 2.344 0 1.294-1.066 2.343-2.38 2.343zm-.842 5.885c.316-.55.496-1.184.496-1.855a4.661 4.661 0 00-1.15-3.062 5.044 5.044 0 013.33.137l.247.098A2.72 2.72 0 0123 19.023c0 1.048-.795 1.93-1.851 2.056l-.131.015c-.887.106-1.78.135-2.67.089z" fill="#478bff" fill-rule="evenodd">
 </path>
</svg>
