<svg height="33" id="appbar-mention-hor" viewbox="-1 -1 32 33" width="32" x="374" xmlns="http://www.w3.org/2000/svg" y="159">
 <g fill="none" fill-rule="evenodd" transform="translate(0 .695)">
  <circle cx="15" cy="15" fill="#F1F1F1" r="15">
  </circle>
  <path d="M13.87 19.215a4.363 4.363 0 115.321-3.002.91.91 0 001.757.471l.023-.084a6.181 6.181 0 10-2.904 3.767c.478-.271 1.014-.116 1.265.319.251.435.15.993-.347 1.25a8 8 0 113.72-4.782 2.726 2.726 0 01-4.73 1.04 4.36 4.36 0 01-4.104 1.02zm.471-1.756a2.545 2.545 0 101.318-4.918 2.545 2.545 0 00-1.318 4.918z" fill="#8B8E95">
  </path>
 </g>
</svg>
