<svg height="20" id="attach-task-act" viewbox="-1 -1 20 20" width="20" x="416" xmlns="http://www.w3.org/2000/svg" y="365">
 <path d="M5.26 5.618l3.282-2.615c1.965-1.564 4.847-1.266 6.438.666a4.45 4.45 0 01-.677 6.33l-6.566 5.23c-1.512 1.203-3.729.974-4.952-.513a3.423 3.423 0 01.52-4.87l6.567-5.228a2.493 2.493 0 013.466.358 2.396 2.396 0 01-.364 3.409l-6.02 4.793a.712.712 0 01-.99-.102.685.685 0 01.104-.974l6.02-4.794a1.027 1.027 0 00.156-1.46 1.068 1.068 0 00-1.486-.154l-6.567 5.23a2.054 2.054 0 00-.312 2.92 2.137 2.137 0 002.971.308l6.567-5.23a3.08 3.08 0 00.468-4.382c-1.1-1.337-3.096-1.544-4.456-.46L6.145 6.693a.712.712 0 01-.99-.102.685.685 0 01.104-.974z" fill="#ff585d" fill-rule="evenodd">
 </path>
</svg>
