<svg height="20" id="billing-company-nor" viewbox="-1 -1 20 20" width="20" x="242" xmlns="http://www.w3.org/2000/svg" y="154">
 <path d="M6.25 14v-3.5a.5.5 0 00-.5-.5h-.5a.5.5 0 00-.5.5V14a1 1 0 01-1 1H3a1 1 0 01-1-1V4a1 1 0 011-1h5a1 1 0 011 1v10a1 1 0 01-1 1h-.75a1 1 0 01-1-1zm-1-9.5a.5.5 0 00-.5.5v.5a.5.5 0 00.5.5h.5a.5.5 0 00.5-.5V5a.5.5 0 00-.5-.5h-.5zm0 2.5a.5.5 0 00-.5.5V8a.5.5 0 00.5.5h.5a.5.5 0 00.5-.5v-.5a.5.5 0 00-.5-.5h-.5zM11 6h4a1 1 0 011 1v7a1 1 0 01-1 1h-4a1 1 0 01-1-1V7a1 1 0 011-1zm1.75 2a.5.5 0 00-.5.5V9a.5.5 0 00.5.5h.5a.5.5 0 00.5-.5v-.5a.5.5 0 00-.5-.5h-.5zm0 2.5a.5.5 0 00-.5.5v.5a.5.5 0 00.5.5h.5a.5.5 0 00.5-.5V11a.5.5 0 00-.5-.5h-.5z" fill="#8B8E95" fill-rule="evenodd">
 </path>
</svg>
