<svg height="20" id="billing-payment-details-act" viewbox="-1 -1 20 20" width="20" x="20" xmlns="http://www.w3.org/2000/svg" y="502">
 <path d="M2.7 7.5h12.6c.387 0 .7.336.7.75v1.5c0 .414-.313.75-.7.75H2.7c-.387 0-.7-.336-.7-.75v-1.5c0-.414.313-.75.7-.75zm0 4.5H9c.387 0 .7.336.7.75v1.5c0 .414-.313.75-.7.75H2.7c-.387 0-.7-.336-.7-.75v-1.5c0-.414.313-.75.7-.75zm0-9h12.6c.387 0 .7.336.7.75v1.5c0 .414-.313.75-.7.75H2.7c-.387 0-.7-.336-.7-.75v-1.5c0-.414.313-.75.7-.75z" fill="#343434" fill-rule="evenodd">
 </path>
</svg>
