<svg height="12" id="bucket-move" viewbox="-1 -1 12 12" width="12" x="436" xmlns="http://www.w3.org/2000/svg" y="418">
 <path d="M3.65 7.475a.45.45 0 01.45.45V9.05a.45.45 0 01-.45.45H2.525a.45.45 0 01-.45-.45V7.925a.45.45 0 01.45-.45H3.65zm3.825 0a.45.45 0 01.45.45V9.05a.45.45 0 01-.45.45H6.35a.45.45 0 01-.45-.45V7.925a.45.45 0 01.45-.45h1.125zM3.65 4.1a.45.45 0 01.45.45v1.125a.45.45 0 01-.45.45H2.525a.45.45 0 01-.45-.45V4.55a.45.45 0 01.45-.45H3.65zm3.825 0a.45.45 0 01.45.45v1.125a.45.45 0 01-.45.45H6.35a.45.45 0 01-.45-.45V4.55a.45.45 0 01.45-.45h1.125zM3.65.5a.45.45 0 01.45.45v1.125a.45.45 0 01-.45.45H2.525a.45.45 0 01-.45-.45V.95a.45.45 0 01.45-.45H3.65zm3.825 0a.45.45 0 01.45.45v1.125a.45.45 0 01-.45.45H6.35a.45.45 0 01-.45-.45V.95A.45.45 0 016.35.5h1.125z" fill="#B9BABE" fill-rule="evenodd">
 </path>
</svg>
