<svg height="20" id="checklist-task-act" viewbox="-1 -1 20 20" width="20" x="260" xmlns="http://www.w3.org/2000/svg" y="502">
 <path d="M7.09 7.75h7.637C15.43 7.75 16 8.31 16 9s-.57 1.25-1.273 1.25H7.091c-.703 0-1.273-.56-1.273-1.25s.57-1.25 1.273-1.25zm0 3.75h7.637c.703 0 1.273.56 1.273 1.25S15.43 14 14.727 14H7.091c-.703 0-1.273-.56-1.273-1.25s.57-1.25 1.273-1.25zm0-7.5h7.637C15.43 4 16 4.56 16 5.25s-.57 1.25-1.273 1.25H7.091c-.703 0-1.273-.56-1.273-1.25S6.388 4 7.091 4zM3.274 7.75c.703 0 1.272.56 1.272 1.25s-.57 1.25-1.272 1.25C2.57 10.25 2 9.69 2 9s.57-1.25 1.273-1.25zm0 3.75c.703 0 1.272.56 1.272 1.25S3.975 14 3.273 14C2.57 14 2 13.44 2 12.75s.57-1.25 1.273-1.25zm0-7.5c.703 0 1.272.56 1.272 1.25S3.975 6.5 3.273 6.5C2.57 6.5 2 5.94 2 5.25S2.57 4 3.273 4z" fill="#ff585d" fill-rule="evenodd">
 </path>
</svg>
