<svg height="20" id="comment-task-act" viewbox="-1 -1 20 20" width="20" x="300" xmlns="http://www.w3.org/2000/svg" y="502">
 <path d="M6.455 7.625L5.089 9a.317.317 0 01-.544-.226v-1.15A2.554 2.554 0 012 5.063 2.554 2.554 0 014.545 2.5h3.819a2.554 2.554 0 012.545 2.562 2.554 2.554 0 01-2.545 2.563h-1.91zm7 6.406v1.149a.317.317 0 01-.543.226l-1.367-1.375H9.636a2.554 2.554 0 01-2.545-2.562 2.554 2.554 0 012.545-2.563h3.819A2.554 2.554 0 0116 11.47a2.554 2.554 0 01-2.545 2.562z" fill="#ff585d" fill-rule="evenodd">
 </path>
</svg>
