<svg height="20" id="coupon-act" viewbox="-1 -1 20 20" width="20" x="420" xmlns="http://www.w3.org/2000/svg" y="502">
 <path d="M15.364 4.545c.351 0 .636.285.636.637v2.545a1.273 1.273 0 100 2.546v2.545a.636.636 0 01-.636.637H6.836v-1.273a.382.382 0 10-.763 0v1.273H2.636A.636.636 0 012 12.818v-2.545a1.273 1.273 0 000-2.546V5.182c0-.352.285-.637.636-.637h3.437v1.273a.382.382 0 00.763 0V4.545h8.528zm-8.91 4.71a.38.38 0 00-.381.381v1.273a.382.382 0 10.763 0V9.636a.38.38 0 00-.381-.381zm0-2.546a.382.382 0 00-.381.382v1.273a.382.382 0 00.763 0V7.09a.381.381 0 00-.381-.382z" fill="#343434" fill-rule="evenodd">
 </path>
</svg>
