<svg height="20" id="download-nor" viewbox="-1 -1 20 20" width="20" x="500" xmlns="http://www.w3.org/2000/svg" y="502">
 <path d="M4.833 13.286h8.334c.46 0 .833.383.833.857a.845.845 0 01-.833.857H4.833A.845.845 0 014 14.143c0-.474.373-.857.833-.857zm6.667-6h1.08c.46 0 .834.383.834.857 0 .25-.106.488-.291.65l-3.58 3.157a.816.816 0 01-1.085 0l-3.58-3.156a.874.874 0 01-.091-1.209c.158-.19.39-.3.632-.3H6.5V3.858c0-.473.373-.857.833-.857h3.334c.46 0 .833.384.833.857v3.429z" fill="#8B8E95" fill-rule="evenodd">
 </path>
</svg>
