<svg height="28" id="edit-nor" viewbox="-1 -1 28 28" width="28" x="324" xmlns="http://www.w3.org/2000/svg" y="418">
 <g fill="none" fill-rule="evenodd">
  <circle cx="13" cy="13" fill="#FFF" r="13">
  </circle>
  <path d="M6.438 19.4h13.125c.517 0 .937.358.937.8 0 .442-.42.8-.938.8H6.438c-.517 0-.937-.358-.937-.8 0-.442.42-.8.938-.8zM18.075 5.262l1.319 1.266a.87.87 0 010 1.266l-9.692 9.304a.945.945 0 01-.477.245l-2.334.448a.466.466 0 01-.549-.35.43.43 0 010-.176l.467-2.241a.885.885 0 01.255-.458l9.692-9.304a.96.96 0 011.319 0z" fill="#8B8E95">
  </path>
 </g>
</svg>
