<svg height="26" id="emoji-custom-nor" viewbox="-1 -1 26 26" width="26" x="434" xmlns="http://www.w3.org/2000/svg" y="448">
 <path d="M12.003 5.53l.032-.032a5.075 5.075 0 017.2 0l.025.024a5.124 5.124 0 011.467 3.611 5.123 5.123 0 01-1.492 3.6L12 20l-3.394-3.41 2.058-2.067L12 15.867l5.178-5.203.007-.007a2.197 2.197 0 00-.007-3.092 2.176 2.176 0 00-3.085 0 2.19 2.19 0 00-.639 1.55c0 2.837-2.28 5.137-5.09 5.137-2.812 0-5.091-2.3-5.091-5.137V9.09a5.114 5.114 0 011.496-3.605A5.067 5.067 0 018.364 4a5.067 5.067 0 013.639 1.53zm-1.458 3.535A2.187 2.187 0 008.364 6.9c-.689 0-1.303.32-1.703.821l.013.009a2.182 2.182 0 00-.492 1.386c0 1.216.976 2.202 2.181 2.202a2.192 2.192 0 002.182-2.252z" fill="#B9BABE" fill-rule="evenodd">
 </path>
</svg>
