<svg height="26" id="emoji-activity-nor" viewbox="-1 -1 26 26" width="26" x="382" xmlns="http://www.w3.org/2000/svg" y="448">
 <path d="M16.346 6.513A6.967 6.967 0 0013 5.07V11h1.536a8.96 8.96 0 011.81-4.487zm1.394 1.48A6.956 6.956 0 0016.552 11h2.377a6.96 6.96 0 00-1.189-3.007zm-1.394 9.494A8.959 8.959 0 0114.536 13H13v5.93a6.963 6.963 0 003.346-1.443zm1.394-1.48A6.96 6.96 0 0018.93 13h-2.378a6.956 6.956 0 001.188 3.007zM7.83 6.378A8.96 8.96 0 019.745 11H11V5.07a6.964 6.964 0 00-3.171 1.308zM6.4 7.8A6.964 6.964 0 005.07 11h2.66A6.958 6.958 0 006.4 7.8zm1.429 9.823A6.964 6.964 0 0011 18.929V13H9.745a8.96 8.96 0 01-1.916 4.622zM6.4 16.2A6.959 6.959 0 007.73 13H5.071c.17 1.19.64 2.283 1.33 3.2zM3.8 12H3a9 9 0 1118 0 9 9 0 01-18 0h.8z" fill="#B9BABE" fill-rule="evenodd">
 </path>
</svg>
