<svg height="26" id="emoji-symbol-act" viewbox="-1 -1 26 26" width="26" x="476" xmlns="http://www.w3.org/2000/svg" y="312">
 <path d="M7.488 18.716l3.669-2.5a1.5 1.5 0 011.69 0l3.668 2.5-1.261-4.2a1.5 1.5 0 01.53-1.627l3.504-2.655-4.428-.11a1.5 1.5 0 01-1.376-.996l-1.482-4.156-1.483 4.156a1.5 1.5 0 01-1.376.995l-4.428.111 3.504 2.655a1.5 1.5 0 01.53 1.627l-1.261 4.2zm4.514-.656l-4.555 3.104a1.5 1.5 0 01-2.281-1.671l1.568-5.22-4.366-3.308a1.5 1.5 0 01.869-2.695l5.513-.137 1.84-5.153a1.5 1.5 0 012.825 0l1.839 5.153 5.513.137a1.5 1.5 0 01.869 2.695l-4.366 3.308 1.568 5.22a1.5 1.5 0 01-2.281 1.671l-4.554-3.104z" fill="#8B8E95" fill-rule="evenodd">
 </path>
</svg>
