<svg height="26" id="emoji-travel-nor" viewbox="-1 -1 26 26" width="26" x="476" xmlns="http://www.w3.org/2000/svg" y="390">
 <g fill="#B9BABE" fill-rule="evenodd">
  <path d="M12.953 15.24l-1.875 1.875.57 2.358c.103.426.016.88-.317 1.213-.609.609-1.469.4-2.015-.145l-.87-.871a2.8 2.8 0 01-3.88-3.88l-.526-.526c-.546-.546-.754-1.406-.145-2.015.332-.332.786-.42 1.212-.316l1.802.435 2.085-2.084L3.56 5.85a1.456 1.456 0 01.015-2.06 1.464 1.464 0 011.694-.278l7.63 3.864 3.892-3.891a2.798 2.798 0 113.958 3.957L16.891 11.3l4.196 8.02a1.466 1.466 0 01-2.336 1.717l-5.799-5.799zm-6.62 1.533a.798.798 0 001.13 1.129L19.334 6.029a.798.798 0 00-1.129-1.13L6.333 16.774zM10.26 9.72l.955-.955-3.872-1.961L10.26 9.72zm4.343 4.34l3.095 3.095-2.126-4.065-.969.97z">
  </path>
  <path d="M12.953 15.24l-1.875 1.875.57 2.358c.103.426.016.88-.317 1.213-.609.609-1.469.4-2.015-.145l-.87-.871a2.8 2.8 0 01-3.88-3.88l-.526-.526c-.546-.546-.754-1.406-.145-2.015.332-.332.786-.42 1.212-.316l1.802.435 2.085-2.084L3.56 5.85a1.456 1.456 0 01.015-2.06 1.464 1.464 0 011.694-.278l7.63 3.864 3.892-3.891a2.798 2.798 0 113.958 3.957L16.891 11.3l4.196 8.02a1.466 1.466 0 01-2.336 1.717l-5.799-5.799zm-6.62 1.533a.798.798 0 001.13 1.129L19.334 6.029a.798.798 0 00-1.129-1.13L6.333 16.774zM10.26 9.72l.955-.955-3.872-1.961L10.26 9.72zm4.343 4.34l3.095 3.095-2.126-4.065-.969.97z">
  </path>
 </g>
</svg>
