<svg height="18" id="emoji-small-hor" viewbox="-1 -1 18 18" width="18" x="358" xmlns="http://www.w3.org/2000/svg" y="522">
 <g fill="none" fill-rule="evenodd">
  <path d="M8 0a8 8 0 110 16A8 8 0 018 0z" fill="#FFCB00">
  </path>
  <path d="M4.452 6.962a1 1 0 112 .001 1 1 0 01-2 0zm5 0a1 1 0 112 .001 1 1 0 01-2 0zm-4.486 3.174a.5.5 0 01.368-.604c.134-.033 1.367-.05 2.605-.05 1.25 0 2.504.017 2.638.052a.5.5 0 01.36.609c-.403 1.551-1.438 2.375-3.001 2.375-1.566 0-2.593-.827-2.97-2.382z" fill="#AB7100">
  </path>
 </g>
</svg>
