<svg height="26" id="emoji-flag-act" viewbox="-1 -1 26 26" width="26" x="476" xmlns="http://www.w3.org/2000/svg">
 <path d="M4 15.51c2.892-.54 5.793-.298 8.668.721 2.458.871 4.886 1.004 7.332.4V8.459c-2.887.528-5.783.292-8.655-.702C8.883 6.903 6.45 6.773 4 7.36v8.149zM2.715 5.636c3.095-.919 6.19-.842 9.285.23 2.916 1.01 5.832 1.137 8.749.38A1 1 0 0122 7.212v10.18a1 1 0 01-.709.957c-3.097.942-6.194.864-9.291-.234-2.915-1.033-5.829-1.163-8.744-.39A1 1 0 012 16.76V6.595a1 1 0 01.715-.96z" fill="#8B8E95" fill-rule="evenodd">
 </path>
</svg>
