<svg height="28" id="emojiadd-medium-hor" viewbox="-1 -1 28 28" width="28" x="352" xmlns="http://www.w3.org/2000/svg" y="418">
 <defs>
  <rect height="24" id="fja" rx="2" width="24" x="0" y="0">
  </rect>
 </defs>
 <g fill="none" fill-rule="evenodd">
  <g transform="translate(1 1)">
   <use fill="#F8F8F8" xlink:href="#fja">
   </use>
   <rect height="25" rx="2" stroke="#D8D8DB" width="25" x="-.5" y="-.5">
   </rect>
  </g>
  <path d="M13 5a8 8 0 110 16 8 8 0 010-16z" fill="#FFCB00">
  </path>
  <path d="M16 15a3 3 0 11-6 0h6zm-7-3a1 1 0 112 0 1 1 0 01-2 0m6 0a1 1 0 112 0 1 1 0 01-2 0" fill="#AB7100">
  </path>
 </g>
</svg>
