<svg height="24" id="fallow-task-act" viewbox="-1 -1 24 24" width="24" x="502" xmlns="http://www.w3.org/2000/svg" y="24">
 <path d="M10.056 10.364c-1.745 0-3.16-1.425-3.16-3.182S8.311 4 10.056 4s3.16 1.425 3.16 3.182-1.415 3.182-3.16 3.182zm1.573 7.573a20.39 20.39 0 01-4.136-.094l-.037-.005A2.813 2.813 0 015 15.04c0-1.509.902-2.869 2.286-3.447l.207-.087a6.555 6.555 0 014.997-.024l.327.133c.64.26 1.179.69 1.573 1.224l-1.859 1.875-.893-.901a1.257 1.257 0 00-1.789 0l-.261.264a1.28 1.28 0 000 1.8l2.04 2.06zm.902-2.322l3.128-3.156a.628.628 0 01.894 0l.262.264a.641.641 0 010 .902l-3.837 3.87a.627.627 0 01-.894 0l-2.05-2.067a.641.641 0 010-.901l.263-.265a.628.628 0 01.893 0l1.341 1.353z" fill="#FF585D" fill-rule="evenodd">
 </path>
</svg>
