<svg height="42" id="file-media-medium" viewbox="-1 -1 32 42" width="32" x="160" xmlns="http://www.w3.org/2000/svg" y="314">
 <defs>
  <filter filterunits="objectBoundingBox" height="140.8%" id="gpb" width="146.7%" x="-23.3%" y="-14.6%">
   <feoffset dy="1" in="SourceAlpha" result="shadowOffsetOuter1">
   </feoffset>
   <fegaussianblur in="shadowOffsetOuter1" result="shadowBlurOuter1" stddeviation="1">
   </fegaussianblur>
   <fecolormatrix in="shadowBlurOuter1" values="0 0 0 0 0 0 0 0 0 0 0 0 0 0 0 0 0 0 0.102381993 0">
   </fecolormatrix>
  </filter>
  <path d="M14.196 9.976L2.508 16.909a1.667 1.667 0 01-2.272-.561A1.624 1.624 0 010 15.505V1.638C0 .733.742 0 1.656 0c.3 0 .595.08.852.233l11.688 6.934a1.627 1.627 0 010 2.809z" id="gpa">
  </path>
 </defs>
 <g fill="none" fill-rule="evenodd">
  <path d="M22.872 0L30 7.128v30.015A2.857 2.857 0 0127.143 40H2.857A2.857 2.857 0 010 37.143V2.857A2.857 2.857 0 012.857 0h20.015z" fill="#8AC917">
  </path>
  <path d="M22.857 0L30 7.143h-5.714c-.79 0-1.429-.64-1.429-1.429V0z" fill="#5A9216">
  </path>
  <g transform="translate(8.143 14.286)">
   <mask fill="#fff" id="gpc">
    <use xlink:href="#gpa">
    </use>
   </mask>
   <use fill="#000" filter="url(#gpb)" xlink:href="#gpa">
   </use>
   <use fill="#FFF" xlink:href="#gpa">
   </use>
   <path d="M0 10l15.714-8.571v20H0z" fill="#8AC917" fill-opacity=".3" mask="url(#gpc)">
   </path>
  </g>
 </g>
</svg>
