<svg height="42" id="file-image-medium" viewbox="-1 -1 32 42" width="32" x="96" xmlns="http://www.w3.org/2000/svg" y="314">
 <defs>
  <filter filterunits="objectBoundingBox" height="140.8%" id="glb" width="140.8%" x="-20.4%" y="-14.6%">
   <feoffset dy="1" in="SourceAlpha" result="shadowOffsetOuter1">
   </feoffset>
   <fegaussianblur in="shadowOffsetOuter1" result="shadowBlurOuter1" stddeviation="1">
   </fegaussianblur>
   <fecolormatrix in="shadowBlurOuter1" values="0 0 0 0 0 0 0 0 0 0 0 0 0 0 0 0 0 0 0.102381993 0">
   </fecolormatrix>
  </filter>
  <path d="M1.429 0h14.285c.79 0 1.429.64 1.429 1.429v14.285c0 .79-.64 1.429-1.429 1.429H1.43c-.79 0-1.429-.64-1.429-1.429V1.43A1.427 1.427 0 011.429 0z" id="gla">
  </path>
 </defs>
 <g fill="none" fill-rule="evenodd">
  <path d="M22.872 0L30 7.128v30.015A2.857 2.857 0 0127.143 40H2.857A2.857 2.857 0 010 37.143V2.857A2.857 2.857 0 012.857 0h20.015z" fill="#F76363">
  </path>
  <path d="M22.857 0L30 7.143h-5.714c-.79 0-1.429-.64-1.429-1.429V0z" fill="#AA2226">
  </path>
  <g transform="translate(6.429 14.286)">
   <mask fill="#fff" id="glc">
    <use xlink:href="#gla">
    </use>
   </mask>
   <use fill="#000" filter="url(#glb)" xlink:href="#gla">
   </use>
   <use fill="#FFF" xlink:href="#gla">
   </use>
   <path d="M4.682 4.98a.7.7 0 01.198.197l5.276 7.912 1.386-2.154a.714.714 0 011.202 0L18.57 20H5.714l1.837-2.858H-4.286L3.691 5.178a.714.714 0 01.99-.198z" fill="#FF585D" fill-opacity=".5" mask="url(#glc)">
   </path>
   <circle cx="12.143" cy="5" fill="#FF585D" mask="url(#glc)" r="2.143">
   </circle>
  </g>
 </g>
</svg>
