<svg height="42" id="file-getc-medium" viewbox="-1 -1 32 42" width="32" x="338" xmlns="http://www.w3.org/2000/svg" y="272">
 <defs>
  <filter filterunits="objectBoundingBox" height="186.7%" id="gca" width="176.5%" x="-38.2%" y="-43.3%">
   <feoffset dy="1" in="SourceAlpha" result="shadowOffsetOuter1">
   </feoffset>
   <fegaussianblur in="shadowOffsetOuter1" result="shadowBlurOuter1" stddeviation="1">
   </fegaussianblur>
   <fecolormatrix in="shadowBlurOuter1" result="shadowMatrixOuter1" values="0 0 0 0 0 0 0 0 0 0 0 0 0 0 0 0 0 0 0.1 0">
   </fecolormatrix>
   <femerge>
    <femergenode in="shadowMatrixOuter1">
    </femergenode>
    <femergenode in="SourceGraphic">
    </femergenode>
   </femerge>
  </filter>
 </defs>
 <g fill="none" fill-rule="evenodd">
  <path d="M22.872 0L30 7.128v30.015A2.857 2.857 0 0127.143 40H2.857A2.857 2.857 0 010 37.143V2.857A2.857 2.857 0 012.857 0h20.015z" fill="#343434">
  </path>
  <path d="M22.857 0L30 7.143h-5.714c-.79 0-1.429-.64-1.429-1.429V0z" fill="#141414">
  </path>
  <g filter="url(#gca)" transform="translate(6.714 15.714)">
   <path d="M0 10.132l2.667 4.677L8.431 4.682 5.766.002z" fill="#0BA460">
   </path>
   <path d="M5.401 10.005l-2.734 4.804 11.53.006.004-.006 2.589-4.804z" fill="#4083F7">
   </path>
   <path d="M5.766.001l5.695 10.004h5.328L11.095 0z" fill="#FFD033">
   </path>
  </g>
  <path d="M20 28h10v10a2 2 0 01-2 2H18V30a2 2 0 012-2z" fill="#343434">
  </path>
  <path d="M25.725 32.251a.735.735 0 00-.285-1.025.797.797 0 00-1.066.275l-.975 1.624a.735.735 0 00.286 1.025c.28.155.376.5.214.768a.598.598 0 01-.8.206c-.932-.517-1.251-1.665-.713-2.562l.975-1.624c.539-.897 1.731-1.204 2.664-.686.932.518 1.252 1.665.713 2.562a.598.598 0 01-.799.206.551.551 0 01-.214-.769zm-3.45 3.498a.735.735 0 00.285 1.025.797.797 0 001.066-.275l.975-1.624a.735.735 0 00-.286-1.025.551.551 0 01-.214-.768.598.598 0 01.8-.206c.932.517 1.251 1.665.713 2.562l-.975 1.624c-.539.897-1.731 1.204-2.664.686-.932-.518-1.252-1.665-.713-2.562a.598.598 0 01.799-.206c.28.156.375.5.214.769z" fill="#FFF">
  </path>
 </g>
</svg>
