<svg height="30" id="file-zip-small" viewbox="-1 -1 22 30" width="22" x="110" xmlns="http://www.w3.org/2000/svg" y="388">
 <defs>
  <filter filterunits="objectBoundingBox" height="158.3%" id="hea" width="158.3%" x="-29.2%" y="-20.8%">
   <feoffset dy="1" in="SourceAlpha" result="shadowOffsetOuter1">
   </feoffset>
   <fegaussianblur in="shadowOffsetOuter1" result="shadowBlurOuter1" stddeviation="1">
   </fegaussianblur>
   <fecolormatrix in="shadowBlurOuter1" values="0 0 0 0 0 0 0 0 0 0 0 0 0 0 0 0 0 0 0.102381993 0">
   </fecolormatrix>
  </filter>
  <path d="M1 0h10a1 1 0 011 1v10a1 1 0 01-1 1H1a1 1 0 01-1-1V1a1 1 0 011-1z" id="heb">
  </path>
 </defs>
 <g fill="none" fill-rule="evenodd">
  <path d="M15.01 0L20 4.99V26a2 2 0 01-2 2H2a2 2 0 01-2-2V2a2 2 0 012-2h13.01z" fill="#9A6262">
  </path>
  <path d="M15 0l5 5h-4a1 1 0 01-1-1V0z" fill="#62291B">
  </path>
  <g transform="translate(4 10)">
   <use fill="#000" filter="url(#hea)" xlink:href="#heb">
   </use>
   <use fill="#FFF" xlink:href="#heb">
   </use>
  </g>
  <path d="M7 10h2v2H7.2a.2.2 0 01-.2-.2V10z" fill="#9A6262">
  </path>
  <path d="M11 12H9v2h1.8a.2.2 0 00.2-.2V12z" fill="#9A6262" fill-opacity=".5">
  </path>
  <path d="M7 14h2v2H7.2a.2.2 0 01-.2-.2V14z" fill="#9A6262">
  </path>
  <path d="M11 16H9v2h1.8a.2.2 0 00.2-.2V16z" fill="#9A6262" fill-opacity=".5">
  </path>
 </g>
</svg>
