<svg height="30" id="file-docs-small" viewbox="-1 -1 22 30" width="22" x="177" xmlns="http://www.w3.org/2000/svg" y="207">
 <defs>
  <filter filterunits="objectBoundingBox" height="158.3%" id="ftb" width="158.3%" x="-29.2%" y="-20.8%">
   <feoffset dy="1" in="SourceAlpha" result="shadowOffsetOuter1">
   </feoffset>
   <fegaussianblur in="shadowOffsetOuter1" result="shadowBlurOuter1" stddeviation="1">
   </fegaussianblur>
   <fecolormatrix in="shadowBlurOuter1" values="0 0 0 0 0 0 0 0 0 0 0 0 0 0 0 0 0 0 0.102381993 0">
   </fecolormatrix>
  </filter>
  <path d="M1 0h10a1 1 0 011 1v10a1 1 0 01-1 1H1a1 1 0 01-1-1V1a1 1 0 011-1z" id="fta">
  </path>
 </defs>
 <g fill="none" fill-rule="evenodd">
  <path d="M15.01 0L20 4.99V26a2 2 0 01-2 2H2a2 2 0 01-2-2V2a2 2 0 012-2h13.01z" fill="#478BFF">
  </path>
  <path d="M15 0l5 5h-4a1 1 0 01-1-1V0z" fill="#1D5ECC">
  </path>
  <g transform="translate(4 10)">
   <mask fill="#fff" id="ftc">
    <use xlink:href="#fta">
    </use>
   </mask>
   <use fill="#000" filter="url(#ftb)" xlink:href="#fta">
   </use>
   <use fill="#FFF" xlink:href="#fta">
   </use>
   <path d="M2.2 2h7.6c.11 0 .2.09.2.2v1.6a.2.2 0 01-.2.2H2.2a.2.2 0 01-.2-.2V2.2c0-.11.09-.2.2-.2z" fill="#478BFF" mask="url(#ftc)">
   </path>
   <path d="M2.2 5h7.6c.11 0 .2.09.2.2v1.6a.2.2 0 01-.2.2H2.2a.2.2 0 01-.2-.2V5.2c0-.11.09-.2.2-.2zm0 3h3.6c.11 0 .2.09.2.2v1.6a.2.2 0 01-.2.2H2.2a.2.2 0 01-.2-.2V8.2c0-.11.09-.2.2-.2z" fill="#478BFF" fill-opacity=".5" mask="url(#ftc)">
   </path>
  </g>
 </g>
</svg>
