<svg height="42" id="file-other-medium" viewbox="-1 -1 32 42" width="32" x="192" xmlns="http://www.w3.org/2000/svg" y="314">
 <defs>
  <filter filterunits="objectBoundingBox" height="140.8%" id="gtb" width="140.8%" x="-20.4%" y="-14.6%">
   <feoffset dy="1" in="SourceAlpha" result="shadowOffsetOuter1">
   </feoffset>
   <fegaussianblur in="shadowOffsetOuter1" result="shadowBlurOuter1" stddeviation="1">
   </fegaussianblur>
   <fecolormatrix in="shadowBlurOuter1" values="0 0 0 0 0 0 0 0 0 0 0 0 0 0 0 0 0 0 0.102381993 0">
   </fecolormatrix>
  </filter>
  <rect height="17.143" id="gta" rx="1" width="17.143">
  </rect>
 </defs>
 <g fill="none" fill-rule="evenodd">
  <path d="M22.872 0L30 7.128v30.015A2.857 2.857 0 0127.143 40H2.857A2.857 2.857 0 010 37.143V2.857A2.857 2.857 0 012.857 0h20.015z" fill="#8B8E95">
  </path>
  <path d="M22.857 0L30 7.143h-5.714c-.79 0-1.429-.64-1.429-1.429V0z" fill="#343434">
  </path>
  <g transform="translate(6.214 14.286)">
   <mask fill="#fff" id="gtc">
    <use xlink:href="#gta">
    </use>
   </mask>
   <use fill="#000" filter="url(#gtb)" xlink:href="#gta">
   </use>
   <use fill="#FFF" xlink:href="#gta">
   </use>
   <circle cx="8.571" cy="7.143" fill="#8B8E95" fill-opacity=".5" mask="url(#gtc)" r="4.286">
   </circle>
   <path d="M8.81 6.07l5.18 7.772a.286.286 0 01-.238.444H3.39a.286.286 0 01-.238-.444l5.18-7.771a.286.286 0 01.476 0z" fill="#8B8E95" fill-opacity=".5" mask="url(#gtc)">
   </path>
  </g>
 </g>
</svg>
