<svg height="30" id="file-gdoc-small" viewbox="-1 -1 22 30" width="22" x="221" xmlns="http://www.w3.org/2000/svg" y="207">
 <defs>
  <filter filterunits="objectBoundingBox" height="158.3%" id="gbb" width="158.3%" x="-29.2%" y="-20.8%">
   <feoffset dy="1" in="SourceAlpha" result="shadowOffsetOuter1">
   </feoffset>
   <fegaussianblur in="shadowOffsetOuter1" result="shadowBlurOuter1" stddeviation="1">
   </fegaussianblur>
   <fecolormatrix in="shadowBlurOuter1" values="0 0 0 0 0 0 0 0 0 0 0 0 0 0 0 0 0 0 0.102381993 0">
   </fecolormatrix>
  </filter>
  <path d="M1 0h10a1 1 0 011 1v10a1 1 0 01-1 1H1a1 1 0 01-1-1V1a1 1 0 011-1z" id="gba">
  </path>
 </defs>
 <g fill="none" fill-rule="evenodd">
  <path d="M15.01 0L20 4.99V26a2 2 0 01-2 2H2a2 2 0 01-2-2V2a2 2 0 012-2h13.01z" fill="#478BFF">
  </path>
  <path d="M15 0l5 5h-4a1 1 0 01-1-1V0z" fill="#1D5ECC">
  </path>
  <g transform="translate(4 10)">
   <mask fill="#fff" id="gbc">
    <use xlink:href="#gba">
    </use>
   </mask>
   <use fill="#000" filter="url(#gbb)" xlink:href="#gba">
   </use>
   <use fill="#FFF" xlink:href="#gba">
   </use>
   <path d="M2.2 2h7.6c.11 0 .2.09.2.2v1.6a.2.2 0 01-.2.2H2.2a.2.2 0 01-.2-.2V2.2c0-.11.09-.2.2-.2z" fill="#478BFF" mask="url(#gbc)">
   </path>
   <path d="M2.2 5h7.6c.11 0 .2.09.2.2v1.6a.2.2 0 01-.2.2H2.2a.2.2 0 01-.2-.2V5.2c0-.11.09-.2.2-.2zm0 3h3.6c.11 0 .2.09.2.2v1.6a.2.2 0 01-.2.2H2.2a.2.2 0 01-.2-.2V8.2c0-.11.09-.2.2-.2z" fill="#478BFF" fill-opacity=".5" mask="url(#gbc)">
   </path>
  </g>
  <path d="M12 18h8v8a2 2 0 01-2 2h-8v-8a2 2 0 012-2z" fill="#343434">
  </path>
  <path d="M16.725 21.251a.735.735 0 00-.285-1.025.797.797 0 00-1.066.275l-.975 1.624a.735.735 0 00.286 1.025c.28.155.376.5.214.768a.598.598 0 01-.8.206c-.932-.517-1.251-1.665-.713-2.562l.975-1.624c.539-.897 1.731-1.204 2.664-.686.932.518 1.252 1.665.713 2.562a.598.598 0 01-.799.206.551.551 0 01-.214-.769zm-3.45 3.498a.735.735 0 00.285 1.025.797.797 0 001.066-.275l.975-1.624a.735.735 0 00-.286-1.025.551.551 0 01-.214-.768.598.598 0 01.8-.206c.932.517 1.251 1.665.713 2.562l-.975 1.624c-.539.897-1.731 1.204-2.664.686-.932-.518-1.252-1.665-.713-2.562a.598.598 0 01.799-.206c.28.156.375.5.214.769z" fill="#FFF">
  </path>
 </g>
</svg>
