<svg height="30" id="file-image-small" viewbox="-1 -1 22 30" width="22" xmlns="http://www.w3.org/2000/svg" y="388">
 <defs>
  <filter filterunits="objectBoundingBox" height="158.3%" id="gmb" width="158.3%" x="-29.2%" y="-20.8%">
   <feoffset dy="1" in="SourceAlpha" result="shadowOffsetOuter1">
   </feoffset>
   <fegaussianblur in="shadowOffsetOuter1" result="shadowBlurOuter1" stddeviation="1">
   </fegaussianblur>
   <fecolormatrix in="shadowBlurOuter1" values="0 0 0 0 0 0 0 0 0 0 0 0 0 0 0 0 0 0 0.102381993 0">
   </fecolormatrix>
  </filter>
  <path d="M1.143.429h10a1 1 0 011 1v10a1 1 0 01-1 1h-10a1 1 0 01-1-1v-10a1 1 0 011-1z" id="gma">
  </path>
 </defs>
 <g fill="none" fill-rule="evenodd">
  <path d="M15.01 0L20 4.99V26a2 2 0 01-2 2H2a2 2 0 01-2-2V2a2 2 0 012-2h13.01z" fill="#F76363">
  </path>
  <path d="M15 0l5 5h-4a1 1 0 01-1-1V0z" fill="#AA2226">
  </path>
  <g transform="translate(3.857 9.571)">
   <mask fill="#fff" id="gmc">
    <use xlink:href="#gma">
    </use>
   </mask>
   <use fill="#000" filter="url(#gmb)" xlink:href="#gma">
   </use>
   <use fill="#FFF" xlink:href="#gma">
   </use>
   <path d="M3.42 3.914a.5.5 0 01.139.139L7.252 9.59l.97-1.508a.5.5 0 01.841 0l4.08 6.346h-9l1.286-2.001h-8.286l5.584-8.375a.5.5 0 01.693-.14z" fill="#FF585D" fill-opacity=".5" mask="url(#gmc)">
   </path>
   <circle cx="8.643" cy="3.929" fill="#FF585D" mask="url(#gmc)" r="1.5">
   </circle>
  </g>
 </g>
</svg>
