<svg height="42" id="file-gslides-medium" viewbox="-1 -1 32 42" width="32" x="64" xmlns="http://www.w3.org/2000/svg" y="314">
 <defs>
  <filter filterunits="objectBoundingBox" height="140.8%" id="gjb" width="130.6%" x="-15.3%" y="-14.6%">
   <feoffset dy="1" in="SourceAlpha" result="shadowOffsetOuter1">
   </feoffset>
   <fegaussianblur in="shadowOffsetOuter1" result="shadowBlurOuter1" stddeviation="1">
   </fegaussianblur>
   <fecolormatrix in="shadowBlurOuter1" values="0 0 0 0 0 0 0 0 0 0 0 0 0 0 0 0 0 0 0.102381993 0">
   </fecolormatrix>
  </filter>
  <path d="M1.429 0h20c.789 0 1.428.64 1.428 1.429v14.285c0 .79-.64 1.429-1.428 1.429h-20c-.79 0-1.429-.64-1.429-1.429V1.43C0 .639.64 0 1.429 0z" id="gja">
  </path>
 </defs>
 <g fill="none" fill-rule="evenodd">
  <path d="M22.872 0L30 7.128v30.015A2.857 2.857 0 0127.143 40H2.857A2.857 2.857 0 010 37.143V2.857A2.857 2.857 0 012.857 0h20.015z" fill="#FFCB00">
  </path>
  <path d="M22.857 0L30 7.143h-5.714c-.79 0-1.429-.64-1.429-1.429V0z" fill="#956411">
  </path>
  <g transform="translate(3.857 14.286)">
   <mask fill="#fff" id="gjc">
    <use xlink:href="#gja">
    </use>
   </mask>
   <use fill="#000" filter="url(#gjb)" xlink:href="#gja">
   </use>
   <use fill="#FFF" xlink:href="#gja">
   </use>
   <circle cx="17.143" cy="11.429" fill="#FFCB00" fill-opacity=".5" mask="url(#gjc)" r="2.857">
   </circle>
   <path d="M3.143 2.857H14c.158 0 .286.128.286.286v2.286a.286.286 0 01-.286.285H3.143a.286.286 0 01-.286-.285V3.143c0-.158.128-.286.286-.286zm0 4.286h6.571c.158 0 .286.128.286.286v2.285a.286.286 0 01-.286.286H3.143a.286.286 0 01-.286-.286V7.43c0-.158.128-.286.286-.286z" fill="#FFCB00" mask="url(#gjc)">
   </path>
  </g>
  <path d="M20 28h10v10a2 2 0 01-2 2H18V30a2 2 0 012-2z" fill="#343434">
  </path>
  <path d="M25.725 32.251a.735.735 0 00-.285-1.025.797.797 0 00-1.066.275l-.975 1.624a.735.735 0 00.286 1.025c.28.155.376.5.214.768a.598.598 0 01-.8.206c-.932-.517-1.251-1.665-.713-2.562l.975-1.624c.539-.897 1.731-1.204 2.664-.686.932.518 1.252 1.665.713 2.562a.598.598 0 01-.799.206.551.551 0 01-.214-.769zm-3.45 3.498a.735.735 0 00.285 1.025.797.797 0 001.066-.275l.975-1.624a.735.735 0 00-.286-1.025.551.551 0 01-.214-.768.598.598 0 01.8-.206c.932.517 1.251 1.665.713 2.562l-.975 1.624c-.539.897-1.731 1.204-2.664.686-.932-.518-1.252-1.665-.713-2.562a.598.598 0 01.799-.206c.28.156.375.5.214.769z" fill="#FFF">
  </path>
 </g>
</svg>
