<svg height="28" id="file-download-hor" viewbox="-1 -1 28 28" width="28" x="448" xmlns="http://www.w3.org/2000/svg" y="84">
 <g fill="none" fill-rule="evenodd">
  <circle cx="13" cy="13" fill="#F1F1F1" r="13">
  </circle>
  <path d="M7.167 19h11.666c.645 0 1.167.448 1.167 1s-.522 1-1.167 1H7.167C6.522 21 6 20.552 6 20s.522-1 1.167-1zm9.231-8.384h1.47c.625 0 1.132.503 1.132 1.124 0 .328-.144.64-.396.853l-4.867 4.137a1.14 1.14 0 01-1.474 0l-4.867-4.137a1.117 1.117 0 01-.123-1.584c.215-.25.53-.393.86-.393h1.469V6.123c0-.62.507-1.123 1.132-1.123h4.532c.625 0 1.132.503 1.132 1.123v4.493z" fill="#8B8E95">
  </path>
 </g>
</svg>
