<svg height="30" id="file-getc-small" viewbox="-1 -1 22 30" width="22" x="243" xmlns="http://www.w3.org/2000/svg" y="207">
 <defs>
  <filter filterunits="objectBoundingBox" height="228.6%" id="gda" width="201.3%" x="-50.6%" y="-61.9%">
   <feoffset dy="1" in="SourceAlpha" result="shadowOffsetOuter1">
   </feoffset>
   <fegaussianblur in="shadowOffsetOuter1" result="shadowBlurOuter1" stddeviation="1">
   </fegaussianblur>
   <fecolormatrix in="shadowBlurOuter1" result="shadowMatrixOuter1" values="0 0 0 0 0 0 0 0 0 0 0 0 0 0 0 0 0 0 0.1 0">
   </fecolormatrix>
   <femerge>
    <femergenode in="shadowMatrixOuter1">
    </femergenode>
    <femergenode in="SourceGraphic">
    </femergenode>
   </femerge>
  </filter>
 </defs>
 <g fill="none" fill-rule="evenodd">
  <path d="M15.01 0L20 4.99V26a2 2 0 01-2 2H2a2 2 0 01-2-2V2a2 2 0 012-2h13.01z" fill="#343434">
  </path>
  <path d="M15 0l5 5h-4a1 1 0 01-1-1V0z" fill="#141414">
  </path>
  <g filter="url(#gda)" transform="translate(4 11)">
   <path d="M0 7.092l1.867 3.274 4.035-7.089L4.036.001z" fill="#0BA460">
   </path>
   <path d="M3.78 7.003l-1.913 3.363 8.071.004.003-.004 1.812-3.363z" fill="#4083F7">
   </path>
   <path d="M4.036 0l3.987 7.003h3.73L7.766.001z" fill="#FFD033">
   </path>
  </g>
  <path d="M12 18h8v8a2 2 0 01-2 2h-8v-8a2 2 0 012-2z" fill="#343434">
  </path>
  <path d="M16.725 21.251a.735.735 0 00-.285-1.025.797.797 0 00-1.066.275l-.975 1.624a.735.735 0 00.286 1.025c.28.155.376.5.214.768a.598.598 0 01-.8.206c-.932-.517-1.251-1.665-.713-2.562l.975-1.624c.539-.897 1.731-1.204 2.664-.686.932.518 1.252 1.665.713 2.562a.598.598 0 01-.799.206.551.551 0 01-.214-.769zm-3.45 3.498a.735.735 0 00.285 1.025.797.797 0 001.066-.275l.975-1.624a.735.735 0 00-.286-1.025.551.551 0 01-.214-.768.598.598 0 01.8-.206c.932.517 1.251 1.665.713 2.562l-.975 1.624c-.539.897-1.731 1.204-2.664.686-.932-.518-1.252-1.665-.713-2.562a.598.598 0 01.799-.206c.28.156.375.5.214.769z" fill="#FFF">
  </path>
 </g>
</svg>
