<svg height="30" id="file-other-small" viewbox="-1 -1 22 30" width="22" x="66" xmlns="http://www.w3.org/2000/svg" y="388">
 <defs>
  <filter filterunits="objectBoundingBox" height="158.3%" id="gub" width="158.3%" x="-29.2%" y="-20.8%">
   <feoffset dy="1" in="SourceAlpha" result="shadowOffsetOuter1">
   </feoffset>
   <fegaussianblur in="shadowOffsetOuter1" result="shadowBlurOuter1" stddeviation="1">
   </fegaussianblur>
   <fecolormatrix in="shadowBlurOuter1" values="0 0 0 0 0 0 0 0 0 0 0 0 0 0 0 0 0 0 0.102381993 0">
   </fecolormatrix>
  </filter>
  <rect height="12" id="gua" rx="1" width="12" x=".143" y=".429">
  </rect>
 </defs>
 <g fill="none" fill-rule="evenodd">
  <path d="M15.01 0L20 4.99V26a2 2 0 01-2 2H2a2 2 0 01-2-2V2a2 2 0 012-2h13.01z" fill="#8B8E95">
  </path>
  <path d="M15 0l5 5h-4a1 1 0 01-1-1V0z" fill="#343434">
  </path>
  <g transform="translate(3.857 9.571)">
   <mask fill="#fff" id="guc">
    <use xlink:href="#gua">
    </use>
   </mask>
   <use fill="#000" filter="url(#gub)" xlink:href="#gua">
   </use>
   <use fill="#FFF" xlink:href="#gua">
   </use>
   <circle cx="6.143" cy="5.429" fill="#8B8E95" fill-opacity=".5" mask="url(#guc)" r="3">
   </circle>
   <path d="M6.31 4.678l3.626 5.44a.2.2 0 01-.167.31H2.517a.2.2 0 01-.167-.31l3.626-5.44a.2.2 0 01.333 0z" fill="#8B8E95" fill-opacity=".5" mask="url(#guc)">
   </path>
  </g>
 </g>
</svg>
