<svg height="42" id="file-keynotes-medium" viewbox="-1 -1 32 42" width="32" x="128" xmlns="http://www.w3.org/2000/svg" y="314">
 <defs>
  <filter filterunits="objectBoundingBox" height="140.8%" id="gnb" width="130.6%" x="-15.3%" y="-14.6%">
   <feoffset dy="1" in="SourceAlpha" result="shadowOffsetOuter1">
   </feoffset>
   <fegaussianblur in="shadowOffsetOuter1" result="shadowBlurOuter1" stddeviation="1">
   </fegaussianblur>
   <fecolormatrix in="shadowBlurOuter1" values="0 0 0 0 0 0 0 0 0 0 0 0 0 0 0 0 0 0 0.102381993 0">
   </fecolormatrix>
  </filter>
  <path d="M1.429 0h20c.789 0 1.428.64 1.428 1.429v14.285c0 .79-.64 1.429-1.428 1.429h-20c-.79 0-1.429-.64-1.429-1.429V1.43C0 .639.64 0 1.429 0z" id="gna">
  </path>
 </defs>
 <g fill="none" fill-rule="evenodd">
  <path d="M22.872 0L30 7.128v30.015A2.857 2.857 0 0127.143 40H2.857A2.857 2.857 0 010 37.143V2.857A2.857 2.857 0 012.857 0h20.015z" fill="#FFCB00">
  </path>
  <path d="M22.857 0L30 7.143h-5.714c-.79 0-1.429-.64-1.429-1.429V0z" fill="#956411">
  </path>
  <g transform="translate(3.857 14.286)">
   <mask fill="#fff" id="gnc">
    <use xlink:href="#gna">
    </use>
   </mask>
   <use fill="#000" filter="url(#gnb)" xlink:href="#gna">
   </use>
   <use fill="#FFF" xlink:href="#gna">
   </use>
   <circle cx="17.143" cy="11.429" fill="#FFCB00" fill-opacity=".5" mask="url(#gnc)" r="2.857">
   </circle>
   <path d="M3.143 2.857H14c.158 0 .286.128.286.286v2.286a.286.286 0 01-.286.285H3.143a.286.286 0 01-.286-.285V3.143c0-.158.128-.286.286-.286zm0 4.286h6.571c.158 0 .286.128.286.286v2.285a.286.286 0 01-.286.286H3.143a.286.286 0 01-.286-.286V7.43c0-.158.128-.286.286-.286z" fill="#FFCB00" mask="url(#gnc)">
   </path>
  </g>
 </g>
</svg>
