<svg height="42" id="file-pdf-medium" viewbox="-1 -1 32 42" width="32" x="224" xmlns="http://www.w3.org/2000/svg" y="314">
 <defs>
  <filter filterunits="objectBoundingBox" height="140.8%" id="gvb" width="140.8%" x="-20.4%" y="-14.6%">
   <feoffset dy="1" in="SourceAlpha" result="shadowOffsetOuter1">
   </feoffset>
   <fegaussianblur in="shadowOffsetOuter1" result="shadowBlurOuter1" stddeviation="1">
   </fegaussianblur>
   <fecolormatrix in="shadowBlurOuter1" values="0 0 0 0 0 0 0 0 0 0 0 0 0 0 0 0 0 0 0.102381993 0">
   </fecolormatrix>
  </filter>
  <rect height="17.143" id="gva" rx="1" width="17.143">
  </rect>
 </defs>
 <g fill="none" fill-rule="evenodd">
  <path d="M22.872 0L30 7.128v30.015A2.857 2.857 0 0127.143 40H2.857A2.857 2.857 0 010 37.143V2.857A2.857 2.857 0 012.857 0h20.015z" fill="#B02C2C">
  </path>
  <path d="M22.857 0L30 7.143h-5.714c-.79 0-1.429-.64-1.429-1.429V0z" fill="#590000">
  </path>
  <g transform="translate(6 14.286)">
   <mask fill="#fff" id="gvc">
    <use xlink:href="#gva">
    </use>
   </mask>
   <use fill="#000" filter="url(#gvb)" xlink:href="#gva">
   </use>
   <use fill="#FFF" xlink:href="#gva">
   </use>
   <rect fill="#B02C2C" height="2.857" mask="url(#gvc)" rx=".2" width="4.286" x="10" y="2.857">
   </rect>
   <rect fill="#B02C2C" fill-opacity=".5" height="2.857" mask="url(#gvc)" rx=".2" width="4.286" x="10" y="7.143">
   </rect>
   <rect fill="#B02C2C" height="2.857" mask="url(#gvc)" rx=".2" width="11.429" x="2.857" y="11.429">
   </rect>
   <path d="M6.071 2.857a2.5 2.5 0 110 5h-.357v1.857A.286.286 0 015.43 10H3.143a.286.286 0 01-.286-.286V3.143c0-.158.128-.286.286-.286H6.07z" fill="#B02C2C" mask="url(#gvc)">
   </path>
  </g>
 </g>
</svg>
