<svg height="30" id="file-keynotes-small" viewbox="-1 -1 22 30" width="22" x="22" xmlns="http://www.w3.org/2000/svg" y="388">
 <defs>
  <filter filterunits="objectBoundingBox" height="158.3%" id="gob" width="143.8%" x="-21.9%" y="-20.8%">
   <feoffset dy="1" in="SourceAlpha" result="shadowOffsetOuter1">
   </feoffset>
   <fegaussianblur in="shadowOffsetOuter1" result="shadowBlurOuter1" stddeviation="1">
   </fegaussianblur>
   <fecolormatrix in="shadowBlurOuter1" values="0 0 0 0 0 0 0 0 0 0 0 0 0 0 0 0 0 0 0.102381993 0">
   </fecolormatrix>
  </filter>
  <path d="M1.857.429h14a1 1 0 011 1v10a1 1 0 01-1 1h-14a1 1 0 01-1-1v-10a1 1 0 011-1z" id="goa">
  </path>
 </defs>
 <g fill="none" fill-rule="evenodd">
  <path d="M15.082 0l4.99 4.99V26a2 2 0 01-2 2h-16a2 2 0 01-2-2V2a2 2 0 012-2h13.01z" fill="#FFCB00">
  </path>
  <path d="M15.071 0l5 5h-4a1 1 0 01-1-1V0z" fill="#956411">
  </path>
  <g transform="translate(1.214 9.571)">
   <mask fill="#fff" id="goc">
    <use xlink:href="#goa">
    </use>
   </mask>
   <use fill="#000" filter="url(#gob)" xlink:href="#goa">
   </use>
   <use fill="#FFF" xlink:href="#goa">
   </use>
   <circle cx="12.857" cy="8.429" fill="#FFCB00" fill-opacity=".5" mask="url(#goc)" r="2">
   </circle>
   <path d="M3.057 2.429h7.6c.11 0 .2.09.2.2v1.6a.2.2 0 01-.2.2h-7.6a.2.2 0 01-.2-.2v-1.6c0-.11.09-.2.2-.2zm0 3h4.6c.11 0 .2.09.2.2v1.6a.2.2 0 01-.2.2h-4.6a.2.2 0 01-.2-.2v-1.6c0-.11.09-.2.2-.2z" fill="#FFCB00" mask="url(#goc)">
   </path>
  </g>
 </g>
</svg>
