<svg height="42" id="file-gsheet-medium" viewbox="-1 -1 32 42" width="32" x="32" xmlns="http://www.w3.org/2000/svg" y="314">
 <defs>
  <filter filterunits="objectBoundingBox" height="141%" id="ghb" width="135.1%" x="-17.6%" y="-14.6%">
   <feoffset dy="1" in="SourceAlpha" result="shadowOffsetOuter1">
   </feoffset>
   <fegaussianblur in="shadowOffsetOuter1" result="shadowBlurOuter1" stddeviation="1">
   </fegaussianblur>
   <fecolormatrix in="shadowBlurOuter1" values="0 0 0 0 0 0 0 0 0 0 0 0 0 0 0 0 0 0 0.102381993 0">
   </fecolormatrix>
  </filter>
  <path d="M1.424 0h17.089c.786 0 1.424.638 1.424 1.424v14.24c0 .787-.638 1.425-1.424 1.425H1.424A1.424 1.424 0 010 15.665V1.425C0 .637.638 0 1.424 0z" id="gha">
  </path>
 </defs>
 <g fill="none" fill-rule="evenodd">
  <path d="M22.872 0L30 7.128v30.015A2.857 2.857 0 0127.143 40H2.857A2.857 2.857 0 010 37.143V2.857A2.857 2.857 0 012.857 0h20.015z" fill="#62B77F">
  </path>
  <path d="M22.857 0L30 7.143h-5.714c-.79 0-1.429-.64-1.429-1.429V0z" fill="#1E7544">
  </path>
  <g transform="translate(4.772 14.24)">
   <mask fill="#fff" id="ghc">
    <use xlink:href="#gha">
    </use>
   </mask>
   <use fill="#000" filter="url(#ghb)" xlink:href="#gha">
   </use>
   <use fill="#FFF" xlink:href="#gha">
   </use>
   <path d="M3.133 7.12H5.41c.158 0 .285.128.285.285v6.55a.285.285 0 01-.285.286H3.133a.285.285 0 01-.285-.285v-6.55c0-.158.128-.286.285-.286zm4.272-4.272h9.399c.157 0 .285.128.285.285V5.41a.285.285 0 01-.285.285H7.405a.285.285 0 01-.285-.285V3.133c0-.157.128-.285.285-.285zm0 4.272h3.703c.157 0 .284.128.284.285v2.279a.285.285 0 01-.284.284H7.405a.285.285 0 01-.285-.284V7.405c0-.157.128-.285.285-.285zm0 4.272h3.703c.157 0 .284.128.284.285v2.279a.285.285 0 01-.284.285H7.405a.285.285 0 01-.285-.285v-2.279c0-.157.128-.285.285-.285zm5.696-4.272h3.703c.157 0 .285.128.285.285v2.279a.285.285 0 01-.285.284H13.1a.285.285 0 01-.285-.284V7.405c0-.157.128-.285.285-.285zm0 4.272h3.703c.157 0 .285.128.285.285v2.279a.285.285 0 01-.285.285H13.1a.285.285 0 01-.285-.285v-2.279c0-.157.128-.285.285-.285z" fill="#62B77F" mask="url(#ghc)">
   </path>
   <path d="M3.133 2.848H5.41c.158 0 .285.128.285.285V5.41a.285.285 0 01-.285.285H3.133a.285.285 0 01-.285-.285V3.133c0-.157.128-.285.285-.285z" fill="#62B77F" fill-opacity=".5" mask="url(#ghc)">
   </path>
  </g>
  <path d="M20 28h10v10a2 2 0 01-2 2H18V30a2 2 0 012-2z" fill="#343434">
  </path>
  <path d="M25.725 32.251a.735.735 0 00-.285-1.025.797.797 0 00-1.066.275l-.975 1.624a.735.735 0 00.286 1.025c.28.155.376.5.214.768a.598.598 0 01-.8.206c-.932-.517-1.251-1.665-.713-2.562l.975-1.624c.539-.897 1.731-1.204 2.664-.686.932.518 1.252 1.665.713 2.562a.598.598 0 01-.799.206.551.551 0 01-.214-.769zm-3.45 3.498a.735.735 0 00.285 1.025.797.797 0 001.066-.275l.975-1.624a.735.735 0 00-.286-1.025.551.551 0 01-.214-.768.598.598 0 01.8-.206c.932.517 1.251 1.665.713 2.562l-.975 1.624c-.539.897-1.731 1.204-2.664.686-.932-.518-1.252-1.665-.713-2.562a.598.598 0 01.799-.206c.28.156.375.5.214.769z" fill="#FFF">
  </path>
 </g>
</svg>
