<svg height="30" id="gantt-view-hor" viewbox="-1 -1 30 30" width="30" x="132" xmlns="http://www.w3.org/2000/svg" y="388">
 <path d="M10.667 11.5h12.38c.527 0 .953.448.953 1v3c0 .552-.426 1-.952 1H10.667c-.526 0-.953-.448-.953-1v-3c0-.552.427-1 .953-1zm-3.715-7h12.381c.526 0 .953.448.953 1v3c0 .552-.427 1-.953 1H6.953C6.425 9.5 6 9.052 6 8.5v-3c0-.552.426-1 .952-1zm-2.19 14h9.905c.42 0 .762.448.762 1v3c0 .552-.342 1-.762 1H4.762c-.42 0-.762-.448-.762-1v-3c0-.552.341-1 .762-1z" fill="#8b8e95" fill-rule="evenodd">
 </path>
</svg>
