<svg height="30" id="gdrive-newtab-hor" viewbox="-1 -1 21 20" width="30" x="222" xmlns="http://www.w3.org/2000/svg" y="388">
 <g fill="none" fill-rule="evenodd">
  <path d="M9.5 18A9 9 0 119.501-.001 9 9 0 019.5 18z" fill="#F1F1F1">
  </path>
  <path d="M12.998 6.468L9.912 9.554a.5.5 0 01-.707 0L8.851 9.2a.5.5 0 010-.707l2.988-2.987H10.3a.5.5 0 01-.5-.5v-.5a.5.5 0 01.5-.5h3.697a.5.5 0 01.5.5v3.5a.5.5 0 01-.5.5h-.5a.5.5 0 01-.5-.5V6.468zM14.5 10.5v3a.5.5 0 01-.5.5H5a.5.5 0 01-.5-.5v-9A.5.5 0 015 4h3a.5.5 0 01.5.5V5a.5.5 0 01-.5.5H6.5A.5.5 0 006 6v6a.5.5 0 00.5.5h6a.5.5 0 00.5-.5v-1.5a.5.5 0 01.5-.5h.5a.5.5 0 01.5.5z" fill="#8B8E95">
  </path>
 </g>
</svg>
