<svg height="20" id="github-dis" viewbox="-1 -1 20 20" width="20" x="526" xmlns="http://www.w3.org/2000/svg" y="100">
 <defs>
  <filter filterunits="objectBoundingBox" height="113.3%" id="hya" width="100.7%" x="-.3%" y="-3.3%">
   <feoffset dy="2" in="SourceAlpha" result="shadowOffsetOuter1">
   </feoffset>
   <fegaussianblur in="shadowOffsetOuter1" result="shadowBlurOuter1" stddeviation="1">
   </fegaussianblur>
   <fecolormatrix in="shadowBlurOuter1" values="0 0 0 0 0 0 0 0 0 0 0 0 0 0 0 0 0 0 0.1 0">
   </fecolormatrix>
  </filter>
  <path d="M0 0h1153v60H0z" id="hyb">
  </path>
 </defs>
 <g fill="none" fill-rule="evenodd">
  <g transform="translate(-1005 -21)">
   <use fill="#000" filter="url(#hya)" xlink:href="#hyb">
   </use>
   <use fill="#FFF" xlink:href="#hyb">
   </use>
  </g>
  <path d="M0 0h18v18H0z">
  </path>
  <path d="M9 1A8.201 8.201 0 00.8 9.203a8.204 8.204 0 005.608 7.783c.41.075.56-.178.56-.396 0-.194-.007-.71-.011-1.395-2.281.496-2.762-1.1-2.762-1.1-.373-.947-.91-1.199-.91-1.199-.745-.509.056-.499.056-.499.823.059 1.255.846 1.255.846.732 1.253 1.92.89 2.387.681.074-.53.286-.891.52-1.096-1.82-.207-3.735-.911-3.735-4.054 0-.896.32-1.628.845-2.201-.085-.208-.366-1.042.08-2.171 0 0 .688-.22 2.255.84A7.851 7.851 0 019 4.967a7.863 7.863 0 012.052.277c1.566-1.062 2.253-.841 2.253-.841.447 1.13.166 1.963.081 2.17.526.574.844 1.306.844 2.202 0 3.15-1.918 3.844-3.745 4.047.295.253.557.754.557 1.52 0 1.096-.01 1.98-.01 2.25 0 .219.148.474.564.394A8.206 8.206 0 0017.2 9.203 8.202 8.202 0 009 1" fill="#8B8E95">
  </path>
 </g>
</svg>
