<svg height="26" id="ic-set-3" viewbox="-1 -1 26 26" width="26" x="476" xmlns="http://www.w3.org/2000/svg" y="416">
 <path d="M14.465 12.253a2.508 2.508 0 01-2.504 2.506 2.508 2.508 0 01-2.503-2.506 2.508 2.508 0 012.503-2.505 2.508 2.508 0 012.504 2.505zm4.486-.314a1.698 1.698 0 01.752-1.454L21 9.625l-2.367-4.157-1.439.697a1.698 1.698 0 01-1.619-.085l-.198-.116a1.694 1.694 0 01-.878-1.367L14.39 3H9.609l-.108 1.597a1.702 1.702 0 01-.883 1.371l-.135.076a1.708 1.708 0 01-1.625.076l-1.434-.71L3.02 9.549l1.289.87c.48.323.755.863.74 1.446l-.002.193c.001.6-.28 1.146-.753 1.459L3 14.375l2.367 4.157 1.359-.659a1.68 1.68 0 011.624.091c.095.057.19.115.29.17.504.278.828.786.867 1.36L9.609 21h4.782l.102-1.508c.038-.57.364-1.081.874-1.364L15.59 18a1.695 1.695 0 011.633-.08l1.355.668 2.402-4.136-1.289-.87a1.701 1.701 0 01-.74-1.442v-.201z" fill="#AEB1BA" fill-rule="evenodd">
 </path>
</svg>
