<svg height="20" id="icon-view-list" viewbox="-1 -1 20 20" width="20" x="526" xmlns="http://www.w3.org/2000/svg" y="320">
 <path d="M15.263 11.763c.407 0 .737.33.737.737v1.29c0 .406-.33.736-.737.736H2.737A.737.737 0 012 13.79V12.5c0-.407.33-.737.737-.737h12.526zm0-4.145c.407 0 .737.33.737.737v1.29c0 .407-.33.737-.737.737H2.737A.737.737 0 012 9.645v-1.29c0-.407.33-.737.737-.737h12.526zm-6.3-4.144c.407 0 .737.33.737.737V5.5c0 .407-.33.737-.737.737H2.737A.737.737 0 012 5.5V4.21c0-.406.33-.736.737-.736h6.226z" fill="#343434" fill-rule="evenodd">
 </path>
</svg>
