<svg height="20" id="icon-view-kanban" viewbox="-1 -1 20 20" width="20" x="526" xmlns="http://www.w3.org/2000/svg" y="300">
 <path d="M9.875 5.5a.7.7 0 01.7.7v9.1a.7.7 0 01-.7.7h-1.75a.7.7 0 01-.7-.7V6.2a.7.7 0 01.7-.7h1.75zm4.725.017a.7.7 0 01.7.7v7.35a.7.7 0 01-.7.7h-1.75a.7.7 0 01-.7-.7v-7.35a.7.7 0 01.7-.7h1.75zM5.15 5.5a.7.7 0 01.7.7v5.95a.7.7 0 01-.7.7H3.4a.7.7 0 01-.7-.7V6.2a.7.7 0 01.7-.7h1.75zM14.6 2a.7.7 0 01.7.7v.7a.7.7 0 01-.7.7H3.4a.7.7 0 01-.7-.7v-.7a.7.7 0 01.7-.7h11.2z" fill="#343434" fill-rule="evenodd">
 </path>
</svg>
