<svg height="14" id="icon-newtab" viewbox="-1 -1 14 14" width="14" x="28" xmlns="http://www.w3.org/2000/svg" y="542">
 <path d="M9.498 3.468L6.412 6.554a.5.5 0 01-.707 0L5.351 6.2a.5.5 0 010-.707L8.34 2.506H6.8a.5.5 0 01-.5-.5v-.5a.5.5 0 01.5-.5h3.697a.5.5 0 01.5.5v3.5a.5.5 0 01-.5.5h-.5a.5.5 0 01-.5-.5V3.468zM11 7.5v3a.5.5 0 01-.5.5h-9a.5.5 0 01-.5-.5v-9a.5.5 0 01.5-.5h3a.5.5 0 01.5.5V2a.5.5 0 01-.5.5H3a.5.5 0 00-.5.5v6a.5.5 0 00.5.5h6a.5.5 0 00.5-.5V7.5A.5.5 0 0110 7h.5a.5.5 0 01.5.5z" fill="#FFF" fill-rule="evenodd">
 </path>
</svg>
