<svg height="97" id="icon-linked-large" viewbox="-1 -1 78 97" width="78" xmlns="http://www.w3.org/2000/svg" y="175">
 <path d="M35.443 50.512c3.155 1.79 4.242 5.833 2.428 9.028-1.815 3.195-5.843 4.334-8.998 2.543-11.787-6.69-15.72-21.748-8.77-33.586l9.178-15.636C36.191 1.089 51.257-3.051 62.98 3.6c11.787 6.69 15.72 21.749 8.77 33.585-1.86 3.17-5.904 4.248-9.032 2.411-3.129-1.837-4.157-5.896-2.296-9.064 3.19-5.434 1.4-12.29-4.012-15.36-5.476-3.108-12.57-1.16-15.799 4.34l-9.18 15.638c-3.19 5.435-1.4 12.29 4.012 15.362zM4.28 57.814c1.86-3.169 5.904-4.248 9.033-2.411 3.128 1.837 4.156 5.895 2.296 9.064-3.19 5.434-1.4 12.29 4.011 15.36 5.477 3.108 12.57 1.16 15.8-4.34L44.6 59.85c3.19-5.435 1.4-12.29-4.012-15.362-3.155-1.791-4.242-5.833-2.428-9.028 1.815-3.195 5.843-4.334 8.998-2.543 11.787 6.69 15.72 21.748 8.77 33.586L46.75 82.139c-6.91 11.772-21.976 15.912-33.697 9.26-11.787-6.689-15.72-21.747-8.77-33.585z" fill="#D8D8DB" fill-rule="evenodd">
 </path>
</svg>
