<svg height="18" id="icon-linked-small" viewbox="-1 -1 18 18" width="18" x="394" xmlns="http://www.w3.org/2000/svg" y="522">
 <path d="M10.588 5.376a1.102 1.102 0 00-.428-1.537c-.56-.31-1.275-.126-1.598.412L7.099 6.688a1.102 1.102 0 00.428 1.537c.42.233.564.749.322 1.153a.897.897 0 01-1.2.309C5.252 8.91 4.773 7.189 5.58 5.844l1.463-2.437c.807-1.345 2.596-1.806 3.995-1.03 1.399.777 1.878 2.498 1.07 3.843a.897.897 0 01-1.198.31.827.827 0 01-.321-1.154zm-5.176 5.248a1.102 1.102 0 00.428 1.537c.56.31 1.275.126 1.598-.412l1.463-2.437a1.102 1.102 0 00-.428-1.537.827.827 0 01-.322-1.153.897.897 0 011.2-.309c1.398.777 1.877 2.498 1.07 3.843l-1.463 2.437c-.807 1.345-2.596 1.806-3.995 1.03-1.399-.777-1.878-2.498-1.07-3.843a.897.897 0 011.198-.31c.42.234.563.75.321 1.154z" fill="#343434" fill-rule="evenodd">
 </path>
</svg>
