<svg height="16" id="import-select-user-act" viewbox="-1 -1 16 16" width="16" x="546" xmlns="http://www.w3.org/2000/svg" y="304">
 <g fill="none" fill-rule="evenodd">
  <path d="M-342-624h1440v900H-342z" fill="#FFF">
  </path>
  <path d="M4.848 6.41c-1.673 0-3.03-1.324-3.03-2.955C1.818 1.823 3.175.5 4.848.5c1.674 0 3.03 1.323 3.03 2.955 0 1.631-1.356 2.954-3.03 2.954zm2.493 6.932l-.167.02a20.19 20.19 0 01-4.783-.008l-.036-.004C1.01 13.187 0 12.073 0 10.75c0-1.4.865-2.663 2.192-3.2l.2-.08a6.476 6.476 0 014.79-.023l.314.123c1.33.524 2.201 1.782 2.201 3.18 0 1.32-1.011 2.433-2.356 2.591zm3.326-6.084c-1.15 0-2.084-.91-2.084-2.031 0-1.122.933-2.032 2.084-2.032 1.15 0 2.083.91 2.083 2.032 0 1.121-.933 2.03-2.083 2.03zm-.738 5.1a3.186 3.186 0 00.435-1.607c0-.994-.37-1.93-1.007-2.654a4.454 4.454 0 012.915.119l.215.085A2.358 2.358 0 0114 10.487c0 .908-.695 1.672-1.62 1.781l-.114.014a13.88 13.88 0 01-2.337.076z" fill="#478BFF">
  </path>
 </g>
</svg>
