<svg height="14" id="import-history-nor" viewbox="-1 -1 16 14" width="16" x="546" xmlns="http://www.w3.org/2000/svg" y="220">
 <g fill="none" fill-rule="evenodd">
  <path d="M-68-369h1440v900H-68z">
  </path>
  <path d="M-68.5-320.5h261v852h-261z" stroke="#E6E6E8">
  </path>
  <path d="M.7 4.5h12.6c.387 0 .7.336.7.75v1.5c0 .414-.313.75-.7.75H.7c-.387 0-.7-.336-.7-.75v-1.5c0-.414.313-.75.7-.75zM.7 9H7c.387 0 .7.336.7.75v1.5c0 .414-.313.75-.7.75H.7c-.387 0-.7-.336-.7-.75v-1.5C0 9.336.313 9 .7 9zm0-9h12.6c.387 0 .7.336.7.75v1.5c0 .414-.313.75-.7.75H.7C.313 3 0 2.664 0 2.25V.75C0 .336.313 0 .7 0z" fill="#8B8E95">
  </path>
 </g>
</svg>
