<svg height="14" id="import-nor" viewbox="-1 -1 12 14" width="16" x="546" xmlns="http://www.w3.org/2000/svg" y="234">
 <g fill="none" fill-rule="evenodd">
  <path d="M-34-369h1440v900H-34z">
  </path>
  <path d="M-34.5-320.5h261v852h-261z" stroke="#E6E6E8">
  </path>
  <path d="M.833 10.286h8.334c.46 0 .833.383.833.857a.845.845 0 01-.833.857H.833A.845.845 0 010 11.143c0-.474.373-.857.833-.857zm6.667-6h1.08c.46 0 .834.383.834.857 0 .25-.106.488-.291.65L5.543 8.95a.816.816 0 01-1.085 0L.878 5.794a.874.874 0 01-.091-1.209c.158-.19.39-.3.632-.3H2.5V.858C2.5.384 2.873 0 3.333 0h3.334c.46 0 .833.384.833.857v3.429z" fill="#8B8E95">
  </path>
 </g>
</svg>
