<svg height="20" id="linked" viewbox="-1 -1 20 20" width="20" x="526" xmlns="http://www.w3.org/2000/svg" y="360">
 <path d="M11.875 5.94a1.32 1.32 0 00-.475-1.794 1.293 1.293 0 00-1.776.48L7.999 7.47a1.32 1.32 0 00.476 1.793.99.99 0 01.357 1.345.97.97 0 01-1.332.36c-1.554-.906-2.087-2.913-1.19-4.483l1.625-2.842a3.232 3.232 0 014.44-1.202c1.554.907 2.086 2.914 1.19 4.484a.97.97 0 01-1.333.36.99.99 0 01-.357-1.345zm-5.75 6.12a1.32 1.32 0 00.475 1.794 1.293 1.293 0 001.776-.48l1.625-2.843a1.32 1.32 0 00-.476-1.793.99.99 0 01-.357-1.345.97.97 0 011.332-.36c1.554.906 2.087 2.913 1.19 4.483l-1.625 2.842a3.232 3.232 0 01-4.44 1.202c-1.554-.907-2.086-2.914-1.19-4.484a.97.97 0 011.333-.36.99.99 0 01.357 1.345z" fill="#FFF" fill-rule="evenodd">
 </path>
</svg>
