<svg height="22" id="linked-medium-nor" viewbox="-1 -1 17 22" width="17" x="502" xmlns="http://www.w3.org/2000/svg" y="186">
 <path d="M7.356 10.735a1.313 1.313 0 01.019 2.626A4.829 4.829 0 012.5 8.486l.026-3.578A4.955 4.955 0 017.434 0a4.829 4.829 0 014.875 4.875 1.313 1.313 0 01-2.626-.02 2.203 2.203 0 00-2.23-2.229 2.329 2.329 0 00-2.3 2.3l-.027 3.58a2.203 2.203 0 002.23 2.229zM2.69 15.058a1.313 1.313 0 012.626.019 2.203 2.203 0 002.23 2.23 2.329 2.329 0 002.3-2.302l.027-3.578a2.203 2.203 0 00-2.23-2.23 1.313 1.313 0 01-.019-2.625 4.829 4.829 0 014.875 4.874l-.026 3.578a4.955 4.955 0 01-4.908 4.908 4.829 4.829 0 01-4.875-4.874z" fill="#8B8E95">
 </path>
</svg>
