<svg height="18" id="member-medium-nor" viewbox="-1 -1 14 18" width="14" x="432" xmlns="http://www.w3.org/2000/svg" y="388">
 <path d="M6 7.273c-2.071 0-3.75-1.628-3.75-3.637C2.25 1.628 3.929 0 6 0c2.071 0 3.75 1.628 3.75 3.636 0 2.009-1.679 3.637-3.75 3.637zm3.085 8.533l-.207.024a25.12 25.12 0 01-5.919-.01l-.045-.005C1.25 15.615 0 14.243 0 12.617c0-1.724 1.07-3.279 2.712-3.94l.247-.098a8.055 8.055 0 015.93-.028l.388.152C10.923 9.347 12 10.896 12 12.617c0 1.625-1.252 2.994-2.915 3.189z" fill="#8B8E95" fill-rule="evenodd">
 </path>
</svg>
