<svg height="18" id="members" viewbox="-1 -1 18 18" width="18" x="448" xmlns="http://www.w3.org/2000/svg" y="522">
 <path d="M6.156 7.5C4.72 7.5 3.558 6.38 3.558 5s1.163-2.5 2.598-2.5C7.59 2.5 8.753 3.62 8.753 5S7.59 7.5 6.156 7.5zm2.136 5.866l-.142.017a17.528 17.528 0 01-4.1-.007l-.031-.003C2.866 13.235 2 12.293 2 11.174c0-1.185.741-2.254 1.879-2.708l.17-.068a5.618 5.618 0 014.108-.019l.269.104c1.14.443 1.886 1.508 1.886 2.691 0 1.117-.867 2.058-2.02 2.192zm2.85-5.148c-.985 0-1.785-.77-1.785-1.719 0-.949.8-1.718 1.786-1.718s1.786.77 1.786 1.718c0 .95-.8 1.72-1.786 1.72zm-.631 4.316a2.67 2.67 0 00.372-1.36c0-.842-.317-1.633-.862-2.245a3.864 3.864 0 012.497.1l.185.072c.784.304 1.297 1.036 1.297 1.85 0 .768-.596 1.415-1.388 1.507l-.098.011c-.665.077-1.335.099-2.003.065z" fill="#B9BABE" fill-rule="evenodd">
 </path>
</svg>
