<svg height="20" id="msg-comment-nor" viewbox="-1 -1 20 20" width="20" x="526" xmlns="http://www.w3.org/2000/svg" y="440">
 <g fill="none" fill-rule="evenodd" transform="translate(-4 -4)">
  <circle cx="13" cy="13" r="13">
  </circle>
  <path d="M19.74 17.949l.698 2.09a1 1 0 01-1.265 1.265l-2.436-.812a8.551 8.551 0 01-12.425-7.626 8.551 8.551 0 0117.102 0 8.513 8.513 0 01-1.673 5.083z" fill="#E6E6E8">
  </path>
  <path d="M8.5 14.125a1.125 1.125 0 110-2.25 1.125 1.125 0 010 2.25zm4.5 0a1.125 1.125 0 110-2.25 1.125 1.125 0 010 2.25zm4.5 0a1.125 1.125 0 110-2.25 1.125 1.125 0 010 2.25z" fill="#8B8E95">
  </path>
 </g>
</svg>
