<svg height="18" id="msg-bookmark-act" viewbox="-1 -1 18 18" width="18" x="466" xmlns="http://www.w3.org/2000/svg" y="522">
 <g fill="none" fill-rule="evenodd">
  <circle cx="13" cy="13" r="13" transform="translate(-5 -5)">
  </circle>
  <path d="M8.572.372L10.55 4.57a.643.643 0 00.479.366l4.425.673c.523.079.73.75.354 1.138l-3.203 3.267a.687.687 0 00-.182.592l.755 4.613c.09.545-.457.96-.924.704l-3.958-2.18a.612.612 0 00-.591 0l-3.96 2.18c-.467.256-1.012-.16-.924-.704l.757-4.613a.688.688 0 00-.183-.592L.193 6.747c-.378-.387-.17-1.06.353-1.138l4.425-.673a.642.642 0 00.48-.366L7.43.372a.624.624 0 011.142 0" fill="#FFCB00">
  </path>
 </g>
</svg>
