<svg height="20" id="mute1-medium-hor" viewbox="-1 -1 20 20" width="20" x="526" xmlns="http://www.w3.org/2000/svg" y="480">
 <path d="M9.476 4.998c1.195.21 2.145.868 2.3 2.29l.302 2.766c.064.595.923 1.172 1.156 1.708.12.276.023.612-.218.75a.437.437 0 01-.218.06H5.202c-.27 0-.488-.251-.488-.56 0-.087.018-.172.052-.25.233-.536 1.091-1.113 1.156-1.708l.302-2.766c.155-1.422 1.105-2.157 2.3-2.307v-.505a.476.476 0 01.952 0v.522zm-1.428 8.05h1.904a.952.952 0 11-1.904 0z" fill="#FFF" fill-rule="evenodd">
 </path>
</svg>
