<svg height="20" id="muteact2-medium-hor" viewbox="-1 -1 20 20" width="20" x="80" xmlns="http://www.w3.org/2000/svg" y="522">
 <path d="M11.717 6.564c.087.216.148.456.179.724l.32 2.766c.069.595.981 1.172 1.23 1.708.127.276.023.612-.233.75a.487.487 0 01-.231.06h-6.4l-.812.95a.731.731 0 01-.993.1l-.011-.008a.66.66 0 01-.106-.96l6.952-8.133a.731.731 0 01.993-.1l.01.008a.66.66 0 01.106.96l-1.004 1.175zM10 5.123l-4.373 5.116a.755.755 0 00.047-.185l.32-2.766C6.16 5.866 7.17 5.13 8.44 4.98v-.495c0-.269.227-.486.506-.486.28 0 .506.217.506.486v.512c.19.031.373.073.549.125zm-2.067 7.925h2.024c0 .526-.444.952-.992.952h-.04c-.548 0-.992-.426-.992-.952z" fill="#8B8E95" fill-rule="evenodd">
 </path>
</svg>
