<svg height="12" id="mytask-icon-nor" viewbox="-1 -1 10 12" width="10" x="406" xmlns="http://www.w3.org/2000/svg" y="171">
 <path d="M4 4.545c-1.294 0-2.344-1.017-2.344-2.272S2.706 0 4 0c1.294 0 2.344 1.018 2.344 2.273 0 1.255-1.05 2.272-2.344 2.272zm1.928 5.333l-.129.016a15.7 15.7 0 01-3.7-.006l-.028-.004C1.031 9.76.25 8.902.25 7.885c0-1.077.669-2.048 1.695-2.461l.154-.062a5.034 5.034 0 013.707-.017l.242.094c1.029.403 1.702 1.37 1.702 2.446 0 1.016-.782 1.872-1.822 1.993z" fill="#8B8E95" fill-rule="evenodd">
 </path>
</svg>
