<svg height="30" id="outcome-mention-nor" viewbox="-1 -1 30 30" width="30" x="120" xmlns="http://www.w3.org/2000/svg" y="418">
 <path d="M14.205 24c-1.847 0-3.488-.85-4.983-1.72-3.056-1.78-5.448-4.253-5.205-8.593.154-2.747 1.107-3.773 3.428-6.099C9.765 5.263 10.999 4 13.908 4c2.546 0 5.646-.045 7.299 1.518 1.999 1.891 1.509 3.745 2.37 7.608.435 1.95.578 3.16.221 4.017-.447 1.072-1.73 1.714-2.591 2.726C19.042 22.416 17.36 24 14.205 24zM14 7a7 7 0 100 14 7 7 0 000-14zm2.56 4.259a.943.943 0 011.295 0 .856.856 0 010 1.245l-4.41 4.237a.943.943 0 01-1.295 0l-2.005-1.926a.856.856 0 010-1.245.943.943 0 011.296 0l1.357 1.304 3.761-3.615z" fill="#FF585D" fill-rule="evenodd">
 </path>
</svg>
