<svg height="18" id="pin-medium-nor" viewbox="-1 -1 12 18" width="12" x="436" xmlns="http://www.w3.org/2000/svg" y="365">
 <path d="M5.833 10.182v5.09c0 .402-.373.728-.833.728-.46 0-.833-.326-.833-.727v-5.091H.833c-.46 0-.833-.326-.833-.727 0-.158.058-.31.167-.437l1.5-1.745.833-5.818h-.833c-.46 0-.834-.326-.834-.728 0-.401.373-.727.834-.727h6.666c.46 0 .834.326.834.727 0 .402-.373.728-.834.728H7.5l.833 5.818 1.5 1.745c.276.322.202.777-.166 1.018a.916.916 0 01-.5.146H5.833z" fill="#8B8E95" fill-rule="evenodd">
 </path>
</svg>
