<svg height="32" id="project-medium-nor" viewbox="-1 -1 32 32" width="32" x="352" xmlns="http://www.w3.org/2000/svg" y="356">
 <g fill="none" fill-rule="evenodd">
  <rect fill="#D8D8DB" height="30" rx="4" width="30">
  </rect>
  <path d="M8.778 8h12.444c.43 0 .778.418.778.933v12.134c0 .515-.348.933-.778.933H8.778c-.43 0-.778-.418-.778-.933V8.933C8 8.418 8.348 8 8.778 8zm8.829 4.12l-3.832 3.798-1.382-1.37a.94.94 0 00-1.32 0 .919.919 0 000 1.308l2.043 2.024a.94.94 0 001.32 0l4.49-4.452a.919.919 0 000-1.308.94.94 0 00-1.32 0z" fill="#FFF">
  </path>
 </g>
</svg>
