<svg height="20" id="question-nor" viewbox="-1 -1 20 20" width="20" x="140" xmlns="http://www.w3.org/2000/svg" y="522">
 <g fill="none" fill-rule="evenodd">
  <circle cx="9" cy="9" fill="#E6E6E8" r="9">
  </circle>
  <path d="M7.96 12.336h2.183v2.117H7.96v-2.117zM5.287 7.063c.058-1.392.544-2.378 1.457-2.96.576-.37 1.284-.556 2.124-.556 1.104 0 2.02.264 2.75.791s1.095 1.309 1.095 2.344c0 .635-.158 1.17-.476 1.604-.185.264-.542.6-1.069 1.01l-.52.403c-.283.22-.471.477-.564.77-.059.185-.09.473-.095.864H8.01c.03-.825.108-1.395.235-1.71.127-.315.454-.678.981-1.088l.535-.418c.176-.131.317-.275.425-.432.195-.268.292-.564.292-.886 0-.371-.108-.71-.325-1.014-.218-.306-.614-.458-1.19-.458-.567 0-.969.188-1.205.564a2.169 2.169 0 00-.356 1.172H5.287z" fill="#343434">
  </path>
 </g>
</svg>
