<svg height="23" id="salesforce" viewbox="-1 -1 32 23" width="32" x="416" xmlns="http://www.w3.org/2000/svg" y="32">
 <g fill="none" fill-rule="nonzero">
  <path d="M12.482 2.292A5.255 5.255 0 0116.285.66c1.98 0 3.707 1.103 4.626 2.742a6.393 6.393 0 012.615-.556c3.57 0 6.465 2.92 6.465 6.522 0 3.602-2.895 6.521-6.465 6.521-.428 0-.854-.042-1.273-.127a4.725 4.725 0 01-6.193 1.945 5.393 5.393 0 01-10.023-.243c-.332.07-.676.107-1.029.107-2.764 0-5.005-2.264-5.005-5.058a5.065 5.065 0 012.503-4.38A5.82 5.82 0 017.85.003c1.889 0 3.567.898 4.631 2.29" fill="#00A1E0">
  </path>
  <path d="M4.347 10.888c-.02.049.006.06.012.068.057.04.114.07.172.103.305.162.594.21.896.21.615 0 .997-.327.997-.854v-.01c0-.487-.43-.664-.835-.792l-.053-.017c-.305-.1-.568-.184-.568-.385V9.2c0-.173.154-.3.392-.3.265 0 .58.089.782.2 0 0 .06.04.081-.018.012-.031.115-.307.125-.337.012-.033-.009-.056-.03-.07a1.744 1.744 0 00-.88-.236h-.062c-.563 0-.956.34-.956.828v.01c0 .514.433.68.84.797l.065.02c.296.091.55.17.55.378v.01c0 .19-.165.332-.432.332-.104 0-.435-.002-.793-.228-.043-.025-.068-.043-.101-.064-.018-.01-.062-.03-.081.028l-.121.337zm9.005 0c-.019.049.007.06.013.068.056.04.113.07.17.103.307.162.596.21.898.21.615 0 .997-.327.997-.854v-.01c0-.487-.431-.664-.836-.792l-.052-.017c-.305-.1-.569-.184-.569-.385V9.2c0-.173.154-.3.393-.3.264 0 .579.089.781.2 0 0 .06.04.081-.018l.126-.337c.011-.033-.01-.056-.03-.07a1.744 1.744 0 00-.882-.236h-.061c-.563 0-.956.34-.956.828v.01c0 .514.433.68.84.797l.065.02c.296.091.552.17.552.378v.01c0 .19-.167.332-.434.332-.104 0-.435-.002-.792-.228-.044-.025-.07-.043-.102-.064-.01-.007-.063-.027-.08.028l-.122.337zM19.5 9.856c0 .298-.056.532-.165.698-.108.164-.272.244-.5.244-.229 0-.391-.08-.498-.244-.107-.165-.162-.4-.162-.698 0-.297.055-.531.162-.695.107-.163.27-.242.498-.242.228 0 .392.08.5.242.11.164.165.398.165.695zm.513-.552c-.05-.17-.129-.32-.234-.446a1.13 1.13 0 00-.394-.3 1.297 1.297 0 00-.55-.11c-.209 0-.394.037-.55.11-.158.074-.29.175-.395.3a1.256 1.256 0 00-.234.446c-.05.17-.075.355-.075.552 0 .197.025.383.075.552.05.17.129.32.234.446.105.126.238.226.394.297.157.072.342.108.55.108.209 0 .394-.036.551-.108.157-.071.29-.171.394-.297.105-.125.184-.276.234-.446.05-.17.076-.355.076-.552 0-.196-.026-.382-.076-.552zm4.217 1.415c-.017-.05-.066-.032-.066-.032a1.178 1.178 0 01-.239.069c-.085.013-.18.02-.281.02-.249 0-.446-.074-.587-.22-.142-.146-.222-.383-.22-.702 0-.291.07-.51.196-.676.125-.166.316-.251.57-.251.212 0 .373.024.542.078 0 0 .041.017.06-.036l.126-.35c.014-.04-.02-.056-.031-.061a2.004 2.004 0 00-.728-.112c-.216 0-.408.036-.573.11a1.185 1.185 0 00-.663.745c-.056.17-.084.356-.084.553 0 .426.115.77.342 1.022.227.253.569.382 1.014.382.263 0 .533-.054.727-.13 0 0 .037-.018.02-.061l-.125-.348zm.898-1.148a1.01 1.01 0 01.14-.41c.107-.163.27-.252.497-.252a.54.54 0 01.487.252.86.86 0 01.116.41h-1.24zm1.729-.364a1.08 1.08 0 00-.223-.406 1.022 1.022 0 00-.33-.252c-.141-.06-.311-.1-.498-.1-.217 0-.414.036-.573.11-.16.076-.295.178-.4.306a1.252 1.252 0 00-.236.451c-.05.172-.076.358-.076.555 0 .2.026.387.079.555.053.17.137.318.252.442.114.124.26.222.437.29.174.067.387.102.63.101.503-.001.767-.113.876-.173.02-.011.037-.03.014-.084l-.113-.318c-.017-.047-.066-.03-.066-.03-.124.046-.3.13-.713.128-.27 0-.47-.08-.595-.204-.128-.127-.191-.314-.202-.578l1.738.001s.046 0 .05-.045c.002-.019.06-.357-.051-.749zm-15.65.364c.025-.165.07-.303.141-.41.106-.163.269-.252.497-.252a.54.54 0 01.487.252c.072.107.103.25.115.41h-1.24zm1.729-.364a1.08 1.08 0 00-.222-.406 1.022 1.022 0 00-.33-.252c-.142-.06-.312-.1-.498-.1-.217 0-.414.036-.574.11-.16.076-.294.178-.4.306a1.252 1.252 0 00-.235.451c-.05.172-.077.358-.077.555 0 .2.027.387.08.555.052.17.137.318.251.442.114.124.261.222.437.29.175.067.387.102.631.101.502-.001.767-.113.876-.173.019-.011.037-.03.014-.084l-.113-.318c-.018-.047-.066-.03-.066-.03-.124.046-.3.13-.714.128-.269 0-.469-.08-.594-.204-.129-.127-.191-.314-.202-.578l1.738.001s.045 0 .05-.045c.002-.019.06-.357-.052-.749zM7.45 10.71a.352.352 0 01-.1-.103.42.42 0 01-.053-.226c0-.153.05-.263.156-.337-.002 0 .149-.13.504-.125.249.003.471.04.471.04v.79s-.22.048-.469.063c-.354.021-.51-.102-.51-.102zm.691-1.221a3.856 3.856 0 00-.271-.008c-.15 0-.293.018-.428.055a1.117 1.117 0 00-.363.168.838.838 0 00-.252.287.838.838 0 00-.093.4c0 .154.026.288.08.397.052.11.129.201.226.272a.95.95 0 00.354.153c.137.031.291.047.46.047.179 0 .356-.014.528-.044.17-.029.38-.071.438-.084.041-.01.082-.02.122-.032.043-.01.04-.056.04-.056l-.001-1.59c0-.348-.093-.607-.276-.767-.183-.16-.452-.24-.799-.24-.13 0-.34.017-.465.043 0 0-.38.073-.537.195 0 0-.034.022-.015.07l.123.33c.015.043.057.028.057.028s.013-.005.029-.014c.334-.182.757-.176.757-.176.188 0 .332.037.43.112.094.073.143.182.143.414v.073c-.15-.02-.287-.033-.287-.033zm14.02-.896c.013-.04-.015-.058-.027-.062a1.508 1.508 0 00-.291-.05.866.866 0 00-.448.072.79.79 0 00-.294.217v-.212c0-.03-.021-.053-.05-.053h-.446c-.029 0-.05.024-.05.053v2.593c0 .029.024.053.053.053h.457c.03 0 .053-.024.053-.053V9.854c0-.173.019-.347.057-.456a.656.656 0 01.152-.256.533.533 0 01.215-.129.837.837 0 01.424-.01c.034.005.053-.016.064-.046.03-.08.114-.318.13-.365z" fill="#FFF">
  </path>
  <path d="M17.875 7.39a1.362 1.362 0 00-.408-.059c-.314 0-.562.09-.736.265-.173.174-.29.44-.35.788l-.02.118h-.396s-.047-.002-.058.05l-.064.362c-.005.034.01.056.056.056h.384l-.39 2.175c-.03.175-.065.32-.104.428a.876.876 0 01-.12.248.323.323 0 01-.16.122.646.646 0 01-.344.014.412.412 0 01-.094-.03s-.045-.017-.062.028c-.015.037-.117.319-.13.353-.011.035.006.062.027.07a1.053 1.053 0 00.413.07c.16 0 .307-.022.428-.066a.806.806 0 00.32-.224c.102-.112.166-.229.226-.389.06-.158.112-.354.153-.583l.392-2.216h.573s.048.002.058-.051l.065-.361c.004-.035-.01-.056-.057-.056h-.556c.003-.013.028-.208.092-.392a.513.513 0 01.122-.186.365.365 0 01.145-.09.73.73 0 01.418.01c.057.016.065 0 .076-.028l.133-.365c.014-.04-.02-.056-.032-.06zm-7.765 3.76c0 .029-.021.052-.05.052h-.461c-.03 0-.05-.023-.05-.052V7.44c0-.029.02-.052.05-.052h.46c.03 0 .05.023.05.052v3.71z" fill="#FFF">
  </path>
 </g>
</svg>
