<svg height="32" id="send_medium-dis" viewbox="-1 -1 44 32" width="44" x="266" xmlns="http://www.w3.org/2000/svg" y="122">
 <g fill="none" fill-rule="evenodd">
  <rect fill="#D8D8DB" height="30" rx="2" width="42">
  </rect>
  <path d="M15.818 17.51l-1.737 3.878c-.132.338-.1.718.085 1.03.335.563 1.066.75 1.632.417l11.616-6.816a1.179 1.179 0 000-2.038L15.798 7.165a1.199 1.199 0 00-1.037-.085 1.18 1.18 0 00-.68 1.532l2.255 5.753a1 1 0 00.93.635h5.372a.2.2 0 01.049.394l-6.2 1.555a1 1 0 00-.67.561z" fill="#FFF">
  </path>
 </g>
</svg>
