<svg height="20" id="shelf_store" viewbox="-1 -1 20 20" width="20" x="240" xmlns="http://www.w3.org/2000/svg" y="522">
 <path d="M13.627 6.245h1.728a.653.653 0 01.639.755l-1.107 7.932a.65.65 0 01-.639.568H3.752a.65.65 0 01-.64-.568L2.008 7a.659.659 0 01.638-.755h1.727a.673.673 0 01.046-.1l1.775-3.149a.956.956 0 011.322-.363c.463.274.622.88.354 1.355L6.597 6.245h4.805l-1.273-2.257a1.005 1.005 0 01.355-1.355.956.956 0 011.322.363l1.775 3.149a.673.673 0 01.046.1z" fill="#FFF" fill-rule="evenodd">
 </path>
</svg>
