<svg height="14" id="star2-small-nor" viewbox="-1 -1 14 14" width="14" x="182" xmlns="http://www.w3.org/2000/svg" y="542">
 <path d="M5.88 8.49L3.789 9.781a.228.228 0 01-.342-.248l.582-2.388a.228.228 0 00-.074-.228L2.08 5.327a.228.228 0 01.13-.401l2.45-.185a.228.228 0 00.195-.141l.933-2.274a.228.228 0 01.422 0L7.144 4.6a.23.23 0 00.194.141l2.45.185a.228.228 0 01.131.401l-1.874 1.59a.228.228 0 00-.074.228l.582 2.388a.228.228 0 01-.342.248L6.12 8.491a.228.228 0 00-.24 0z" fill="#B9BABE" fill-rule="evenodd">
 </path>
</svg>
