<svg height="15" id="star-large-act" viewbox="-1 -1 16 15" width="16" x="546" xmlns="http://www.w3.org/2000/svg" y="480">
 <path d="M6.79 10.742l-3.66 2.2a.406.406 0 01-.55-.127.38.38 0 01-.048-.296L3.551 8.45a.383.383 0 00-.13-.389L.14 5.354a.382.382 0 01-.046-.548.403.403 0 01.275-.137l4.288-.314a.399.399 0 00.34-.24L6.63.24a.404.404 0 01.74 0l1.632 3.874c.057.136.189.23.34.24l4.288.314c.22.017.385.203.369.418a.386.386 0 01-.14.267l-3.28 2.708a.383.383 0 00-.13.39l1.019 4.067a.389.389 0 01-.294.47.409.409 0 01-.305-.047l-3.659-2.2a.409.409 0 00-.42 0z" fill="#FFCB00" fill-rule="evenodd">
 </path>
</svg>
