<svg height="32" id="store-edit-hor" viewbox="-1 -1 32 32" width="32" x="416" xmlns="http://www.w3.org/2000/svg" y="87">
 <g fill="none" fill-rule="evenodd">
  <circle cx="15" cy="15" fill="#F1F1F1" r="15">
  </circle>
  <path d="M8.438 21.4h13.124c.518 0 .938.358.938.8 0 .442-.42.8-.938.8H8.438c-.517 0-.937-.358-.937-.8 0-.442.42-.8.938-.8zM20.075 7.262l1.319 1.266a.87.87 0 010 1.266l-9.692 9.304a.947.947 0 01-.477.245l-2.334.448a.467.467 0 01-.549-.35.435.435 0 010-.176l.467-2.241a.884.884 0 01.255-.458l9.692-9.304a.96.96 0 011.319 0z" fill="#8B8E95">
  </path>
 </g>
</svg>
