<svg height="32" id="store-trash-hor" viewbox="-1 -1 32 32" width="32" x="416" xmlns="http://www.w3.org/2000/svg" y="151">
 <g fill="none" fill-rule="evenodd">
  <circle cx="15" cy="15" fill="#F1F1F1" r="15">
  </circle>
  <path d="M16.833 8.778h2.75c.507 0 .917.398.917.889 0 .49-.41.889-.917.889h-9.166a.903.903 0 01-.917-.89c0-.49.41-.888.917-.888h2.75v-.89c0-.49.41-.888.916-.888h1.834c.506 0 .916.398.916.889v.889zm-6.349 3.555h9.032c.506 0 .916.398.916.89 0 .02 0 .041-.002.063l-.786 8.888a.905.905 0 01-.914.826h-7.46c-.48 0-.88-.36-.914-.826l-.786-8.888a.898.898 0 01.914-.953z" fill="#8B8E95">
  </path>
 </g>
</svg>
