<svg height="26" id="summary-checklist" viewbox="-1 -1 26 26" width="26" x="208" xmlns="http://www.w3.org/2000/svg" y="476">
 <path d="M9.818 10.563h8.727c.804 0 1.455.643 1.455 1.437s-.651 1.438-1.455 1.438H9.818A1.446 1.446 0 018.364 12c0-.794.65-1.438 1.454-1.438zm0 4.312h8.727c.804 0 1.455.644 1.455 1.438 0 .793-.651 1.437-1.455 1.437H9.818a1.446 1.446 0 01-1.454-1.438c0-.793.65-1.437 1.454-1.437zm0-8.625h8.727c.804 0 1.455.644 1.455 1.438 0 .793-.651 1.437-1.455 1.437H9.818a1.446 1.446 0 01-1.454-1.438c0-.793.65-1.437 1.454-1.437zm-4.363 4.313c.803 0 1.454.643 1.454 1.437s-.651 1.438-1.454 1.438A1.446 1.446 0 014 12c0-.794.651-1.438 1.455-1.438zm0 4.312c.803 0 1.454.644 1.454 1.438 0 .793-.651 1.437-1.454 1.437A1.446 1.446 0 014 16.312c0-.793.651-1.437 1.455-1.437zm0-8.625c.803 0 1.454.644 1.454 1.438 0 .793-.651 1.437-1.454 1.437A1.446 1.446 0 014 7.687c0-.793.651-1.437 1.455-1.437z" fill="#343434" fill-rule="evenodd">
 </path>
</svg>
