<svg height="28" id="summary-star-hor" viewbox="-1 -1 28 28" width="28" x="196" xmlns="http://www.w3.org/2000/svg" y="448">
 <g fill="none" fill-rule="evenodd">
  <circle cx="13" cy="13" fill="#F1F1F1" r="13">
  </circle>
  <path d="M12.76 17.98l-4.182 2.583a.457.457 0 01-.684-.497l1.164-4.775a.457.457 0 00-.148-.457l-3.749-3.18a.457.457 0 01.261-.803l4.902-.369a.457.457 0 00.388-.282l1.865-4.547a.457.457 0 01.846 0l1.865 4.547c.066.16.216.269.388.282l4.902.369a.457.457 0 01.26.804l-3.748 3.18a.457.457 0 00-.148.456l1.164 4.775a.457.457 0 01-.684.497L13.24 17.98a.457.457 0 00-.48 0z" fill="#478BFF">
  </path>
 </g>
</svg>
