<svg height="26" id="summary-follower" viewbox="-1 -1 26 26" width="26" x="260" xmlns="http://www.w3.org/2000/svg" y="476">
 <path d="M10.899 11.273c-2.036 0-3.687-1.628-3.687-3.637C7.212 5.628 8.862 4 10.899 4c2.036 0 3.686 1.628 3.686 3.636 0 2.009-1.65 3.637-3.686 3.637zm1.835 8.654a24.281 24.281 0 01-4.825-.107l-.044-.005C6.229 19.615 5 18.243 5 16.617a4.264 4.264 0 012.667-3.94l.242-.098a7.794 7.794 0 015.83-.028l.381.152a4.266 4.266 0 011.835 1.399l-2.169 2.143-1.042-1.03a1.488 1.488 0 00-2.086 0l-.306.301a1.443 1.443 0 000 2.058l2.382 2.353zm1.052-2.653l3.65-3.606a.744.744 0 011.043 0l.305.302a.722.722 0 010 1.03l-4.476 4.423a.74.74 0 01-1.043 0l-2.39-2.362a.722.722 0 010-1.03l.304-.302a.744.744 0 011.043 0l1.564 1.545z" fill="#343434" fill-rule="evenodd">
 </path>
</svg>
