<svg height="26" id="summary-contents" viewbox="-1 -1 26 26" width="26" x="234" xmlns="http://www.w3.org/2000/svg" y="476">
 <path d="M4.8 10.375h14.4c.442 0 .8.364.8.813v1.624a.806.806 0 01-.8.813H4.8a.806.806 0 01-.8-.813v-1.624c0-.45.358-.813.8-.813zm0 4.875H12c.442 0 .8.364.8.813v1.625a.806.806 0 01-.8.812H4.8a.806.806 0 01-.8-.813v-1.625c0-.448.358-.812.8-.812zm0-9.75h14.4c.442 0 .8.364.8.813v1.625a.806.806 0 01-.8.812H4.8a.806.806 0 01-.8-.813V6.313c0-.448.358-.812.8-.812z" fill="#343434" fill-rule="evenodd">
 </path>
</svg>
