<svg height="26" id="summary-attachment" viewbox="-1 -1 26 26" width="26" x="182" xmlns="http://www.w3.org/2000/svg" y="476">
 <path d="M7.725 8.135l3.752-2.988c2.245-1.788 5.54-1.448 7.357.76a5.086 5.086 0 01-.773 7.235l-7.505 5.976c-1.727 1.375-4.26 1.113-5.66-.585a3.912 3.912 0 01.596-5.565l7.504-5.976a2.85 2.85 0 013.962.409 2.739 2.739 0 01-.416 3.896l-6.88 5.478a.814.814 0 01-1.132-.117.782.782 0 01.12-1.113l6.879-5.478c.518-.413.598-1.16.178-1.67a1.221 1.221 0 00-1.698-.175l-7.504 5.976a2.347 2.347 0 00-.357 3.34 2.442 2.442 0 003.395.35l7.505-5.976a3.521 3.521 0 00.535-5.009c-1.258-1.529-3.539-1.764-5.093-.526L8.738 9.365a.814.814 0 01-1.132-.117.782.782 0 01.119-1.113z" fill="#343434" fill-rule="evenodd">
 </path>
</svg>
