<svg height="26" id="summary-member" viewbox="-1 -1 26 26" width="26" x="286" xmlns="http://www.w3.org/2000/svg" y="476">
 <path d="M12 11.273c-2.071 0-3.75-1.628-3.75-3.637C8.25 5.628 9.929 4 12 4c2.071 0 3.75 1.628 3.75 3.636 0 2.009-1.679 3.637-3.75 3.637zm3.085 8.533l-.207.024a25.12 25.12 0 01-5.919-.01l-.045-.005C7.25 19.615 6 18.243 6 16.617c0-1.724 1.07-3.279 2.712-3.94l.247-.098a8.055 8.055 0 015.93-.028l.388.152c1.646.644 2.723 2.193 2.723 3.914 0 1.625-1.252 2.994-2.915 3.189z" fill="#343434" fill-rule="evenodd">
 </path>
</svg>
