<svg height="26" id="summary-priority" viewbox="-1 -1 26 26" width="26" x="312" xmlns="http://www.w3.org/2000/svg" y="476">
 <path d="M16.564 16.022l1.616-1.55a.727.727 0 011.007 0l.59.565a.727.727 0 010 1.05l-3.868 3.71a.727.727 0 01-1.008 0l-3.867-3.71a.727.727 0 010-1.05l.589-.565a.727.727 0 011.007 0l1.616 1.55v-4.88c0-.402.325-.728.727-.728h.864c.402 0 .727.326.727.728v4.88zm-6.81-8.044v4.88a.727.727 0 01-.727.728h-.864a.727.727 0 01-.727-.728v-4.88L5.82 9.528a.727.727 0 01-1.007 0l-.59-.565a.727.727 0 010-1.05l3.868-3.71a.727.727 0 011.008 0l3.867 3.71a.727.727 0 010 1.05l-.589.565a.727.727 0 01-1.007 0l-1.616-1.55z" fill="#343434" fill-rule="evenodd">
 </path>
</svg>
