<svg height="18" id="zoom-small-act" version="1.1" viewbox="-1 -1 122 122" width="18" x="546" xml:space="preserve" xmlns="http://www.w3.org/2000/svg" y="126">
 <style>
  .osst0{fill:#2d8cff}.osst1{fill:#fff}
 </style>
 <circle class="osst0" cx="60" cy="60" r="60">
 </circle>
 <path class="osst1" d="M82.96 72.06l6.77 5.64c1.66 1.38 2.49 2.07 3.16 2.24 1.37.34 2.78-.33 3.4-1.59.3-.62.3-1.7.3-3.86V45.51c0-2.16 0-3.24-.3-3.86a2.977 2.977 0 00-3.4-1.59c-.67.16-1.5.86-3.16 2.24l-6.77 5.64c-1.1.92-1.65 1.38-2.1 1.9a7.773 7.773 0 00-1.72 3.68c-.12.68-.12 1.39-.12 2.83v7.3c0 1.43 0 2.15.12 2.83.24 1.36.83 2.63 1.72 3.68.45.53 1 .98 2.1 1.9zM23.41 47.25c0-2.71 0-4.06.53-5.1.46-.91 1.2-1.65 2.11-2.11 1.03-.53 2.39-.53 5.1-.53h24.68c7.09 0 10.64 0 13.35 1.38 2.38 1.21 4.32 3.15 5.54 5.54 1.38 2.71 1.38 6.26 1.38 13.35v12.97c0 2.71 0 4.06-.53 5.1-.46.91-1.2 1.65-2.11 2.11-1.03.53-2.39.53-5.1.53H43.68c-7.09 0-10.64 0-13.35-1.38a12.676 12.676 0 01-5.54-5.54c-1.38-2.71-1.38-6.26-1.38-13.35V47.25z">
 </path>
</svg>
