<svg xmlns="http://www.w3.org/2000/svg" width="20" height="20" viewBox="-1 -1 20 20" id="github-nor" x="526" y="120"><defs><filter id="hza" width="100.7%" height="113.3%" x="-.3%" y="-3.3%" filterUnits="objectBoundingBox"><feOffset dy="2" in="SourceAlpha" result="shadowOffsetOuter1"/><feGaussianBlur in="shadowOffsetOuter1" result="shadowBlurOuter1" stdDeviation="1"/><feColorMatrix in="shadowBlurOuter1" values="0 0 0 0 0 0 0 0 0 0 0 0 0 0 0 0 0 0 0.1 0"/></filter><path id="hzb" d="M0 0h1153v60H0z"/></defs><g fill="none" fill-rule="evenodd"><g transform="translate(-1005 -21)"><use fill="#000" filter="url(#hza)" xmlns:xlink="http://www.w3.org/1999/xlink" xlink:href="#hzb"/><use fill="#FFF" xmlns:xlink="http://www.w3.org/1999/xlink" xlink:href="#hzb"/></g><path d="M0 0h18v18H0z"/><path fill="#181717" d="M9 1a8.205 8.205 0 00-2.592 15.986c.41.075.56-.178.56-.396 0-.194-.007-.71-.011-1.395-2.281.496-2.762-1.1-2.762-1.1-.373-.947-.91-1.199-.91-1.199-.745-.509.056-.499.056-.499.823.059 1.255.846 1.255.846.732 1.253 1.92.89 2.387.681.074-.53.286-.891.52-1.096-1.82-.207-3.735-.911-3.735-4.054 0-.896.32-1.628.845-2.201-.085-.208-.366-1.042.08-2.171 0 0 .688-.22 2.255.84a7.924 7.924 0 012.053-.276 7.891 7.891 0 012.052.277c1.566-1.062 2.253-.841 2.253-.841.447 1.13.166 1.963.081 2.17.526.574.844 1.306.844 2.202 0 3.15-1.918 3.844-3.745 4.047.295.253.557.754.557 1.52 0 1.096-.01 1.98-.01 2.25 0 .219.148.474.564.394A8.207 8.207 0 0017.2 9.203 8.202 8.202 0 009 1"/></g></svg>